<?xml version="1.0" standalone="no"?>
<!DOCTYPE svg PUBLIC "-//W3C//DTD SVG 20010904//EN"
 "http://www.w3.org/TR/2001/REC-SVG-20010904/DTD/svg10.dtd">
<svg version="1.0" xmlns="http://www.w3.org/2000/svg"
 width="1280.000000pt" height="981.000000pt" viewBox="0 0 1280.000000 981.000000"
 preserveAspectRatio="xMidYMid meet">
<metadata>
Created by potrace 1.15, written by Peter Selinger 2001-2017
</metadata>
<g transform="translate(0.000000,981.000000) scale(0.100000,-0.100000)"
fill="#000000" stroke="none">
<path d="M9512 9794 l-204 -14 -246 -131 c-136 -71 -251 -134 -257 -140 -5 -5
-26 -55 -46 -111 l-36 -101 127 -204 127 -203 -53 -145 c-30 -80 -54 -150 -54
-154 0 -5 39 -23 88 -40 l87 -32 43 -145 c24 -81 42 -148 40 -149 -4 -5 -231
-25 -273 -25 -33 0 -19 -21 -160 245 l-74 141 84 91 c47 50 85 93 85 96 0 12
-136 -44 -174 -71 -22 -16 -68 -62 -101 -102 -144 -173 -525 -430 -720 -485
-72 -20 -261 -109 -407 -192 l-106 -61 -39 40 c-71 74 -234 202 -386 306 -122
82 -153 99 -159 87 -13 -21 23 -65 112 -138 88 -71 264 -241 321 -309 l40 -47
-33 -17 c-26 -13 -75 -19 -228 -25 -107 -4 -215 -8 -240 -8 l-46 -1 4 64 c4
58 2 66 -24 94 -16 17 -41 34 -55 37 -26 6 -26 6 -33 -67 -13 -137 -13 -138
-55 -138 -31 0 -70 -25 -303 -201 l-268 -202 -47 13 c-27 7 -53 16 -59 19 -8
4 18 90 77 261 l90 254 -39 38 -38 39 -53 -66 c-29 -36 -57 -67 -61 -70 -5 -3
-48 50 -96 117 -48 68 -93 128 -101 134 -7 7 -48 24 -91 39 -42 15 -81 30 -85
34 -4 5 16 18 45 31 87 37 167 90 240 158 37 35 68 61 68 58 0 -4 -27 -49 -59
-101 -47 -73 -56 -95 -44 -99 43 -17 105 5 195 71 l46 34 54 -58 c29 -32 80
-86 113 -121 l60 -63 184 3 185 3 -150 59 c-135 54 -156 66 -222 125 -121 108
-125 116 -127 242 l-2 108 26 -11 c14 -5 91 -34 169 -64 l144 -55 44 30 c25
16 41 31 37 34 -7 4 -121 48 -360 138 l-22 8 41 120 40 119 -62 124 c-34 67
-68 128 -76 134 -7 6 -95 42 -195 79 l-182 68 -166 -10 -166 -10 -170 -94
-169 -94 -28 -77 -29 -76 87 -144 87 -143 -38 -108 c-20 -60 -36 -109 -34
-111 2 -2 28 -11 57 -22 30 -10 57 -25 62 -34 4 -8 18 -51 30 -95 12 -43 24
-84 27 -91 3 -9 -16 -14 -64 -18 -37 -4 -85 -9 -105 -11 l-38 -5 -70 139 -69
139 55 62 c30 34 53 64 51 67 -3 2 -28 -5 -56 -17 -37 -17 -71 -45 -127 -107
-133 -146 -340 -291 -484 -338 -73 -24 -125 -50 -311 -156 l-155 -89 -234 -10
-233 -11 -146 -114 c-80 -63 -161 -127 -180 -143 l-35 -29 79 -114 c43 -63 79
-116 81 -117 1 -2 93 -32 203 -67 l201 -63 35 40 c20 21 33 43 30 48 -3 4 -28
16 -56 25 -28 10 -47 21 -42 25 12 11 415 164 508 193 139 43 132 43 171 0 19
-21 64 -95 100 -166 57 -113 67 -127 87 -122 12 2 38 6 57 7 34 3 35 2 49 -50
8 -29 12 -54 10 -56 -58 -46 -262 -195 -314 -229 -94 -60 -212 -120 -311 -156
l-81 -29 -274 95 -274 95 -276 -10 -277 -10 -359 -137 -358 -137 -285 -245
-285 -245 -154 -261 -154 -261 -23 -250 -22 -251 92 -212 91 -212 128 -86 c70
-47 125 -85 121 -85 -4 0 -248 70 -542 155 -294 86 -536 154 -538 152 -2 -2
80 -30 183 -61 862 -265 1922 -596 2033 -636 156 -55 327 -104 420 -120 36 -6
70 -12 75 -14 7 -3 9 -27 5 -67 l-6 -64 129 -285 c71 -157 131 -290 134 -297
5 -13 242 -170 336 -223 32 -18 57 -34 55 -36 -3 -2 -690 187 -1562 430 -131
37 -240 65 -242 63 -2 -2 108 -36 244 -76 792 -232 3080 -918 3207 -961 289
-99 462 -145 666 -180 110 -19 1474 -277 1672 -316 90 -19 115 -13 30 5 -32 7
-438 107 -903 223 -465 115 -989 243 -1165 283 -176 41 -520 130 -764 197
l-444 123 79 2 c258 8 497 35 813 94 144 26 175 36 260 78 l96 49 65 -25 c106
-40 923 -313 937 -313 11 0 48 69 41 75 -17 14 -257 79 -693 189 -280 71 -326
85 -305 94 14 5 131 62 260 125 221 108 241 120 335 202 55 48 163 129 240
180 130 86 154 106 331 291 161 168 194 208 212 254 11 30 73 188 136 350 64
162 116 306 116 321 0 15 29 105 65 200 36 95 65 182 65 193 0 12 -14 90 -30
174 -40 202 -52 322 -39 383 6 27 14 51 18 53 13 9 81 -138 100 -219 26 -105
65 -314 91 -495 44 -298 129 -1005 122 -1011 -4 -3 -125 -50 -270 -104 l-263
-99 -73 -116 c-89 -141 -128 -216 -157 -306 -29 -90 -71 -155 -152 -232 l-66
-63 106 -133 c103 -131 106 -134 152 -141 182 -25 870 -137 886 -144 11 -5 30
-34 43 -67 32 -78 39 -240 19 -419 l-14 -130 189 -330 189 -331 237 -131 237
-131 386 -58 387 -58 504 107 505 106 424 261 424 261 283 282 c269 269 284
285 311 352 225 546 381 936 381 951 -1 10 -29 152 -63 314 l-63 296 -155 204
-154 203 -290 138 -290 138 -297 0 -298 1 -1 38 c-3 88 3 221 22 424 31 354
23 320 90 382 73 67 114 83 175 66 25 -7 46 -11 47 -9 13 17 243 287 255 299
18 18 21 24 -67 -136 -39 -72 -71 -133 -71 -137 0 -4 17 -15 38 -24 52 -24
295 -22 562 6 l205 22 210 115 210 115 152 420 153 419 -97 123 c-53 67 -101
128 -108 135 -9 10 -37 1 -141 -47 -213 -97 -358 -135 -671 -171 l-188 -22
-132 50 c-73 27 -133 48 -133 47 0 -2 47 -90 104 -197 l103 -193 -5 -212 -5
-212 -38 -5 c-22 -3 -57 -9 -79 -12 l-40 -6 29 59 c28 56 81 215 83 251 1 9
-69 140 -156 291 -86 150 -155 275 -153 277 2 2 111 -2 243 -9 l239 -13 190
76 c105 42 199 81 208 87 16 8 4 20 -80 86 l-98 76 -80 -78 -80 -78 -130 -6
c-318 -16 -535 -20 -535 -9 0 16 237 98 416 143 24 6 44 14 44 16 0 5 -58 111
-66 122 -2 2 -86 -22 -188 -53 -101 -31 -187 -56 -191 -56 -3 0 25 36 64 81
132 152 196 288 207 440 6 77 4 87 -17 118 -30 43 -65 69 -105 77 l-30 6 -22
-176 -21 -175 -192 -273 c-106 -150 -210 -296 -230 -324 l-38 -52 -296 88
c-163 49 -299 90 -301 93 -4 3 185 535 245 689 9 25 6 32 -40 83 -28 30 -54
55 -58 55 -3 0 -45 -45 -91 -100 -46 -55 -87 -100 -90 -99 -3 0 -65 83 -139
184 l-134 184 -144 53 c-123 45 -141 54 -121 62 83 33 253 121 305 158 34 24
98 76 143 116 44 41 80 71 80 68 0 -3 -40 -66 -90 -140 -49 -75 -90 -138 -90
-140 0 -11 71 -26 96 -20 41 10 149 66 219 114 l60 41 165 -169 165 -169 270
7 c149 3 264 7 258 8 -7 1 -106 38 -220 83 -223 87 -228 89 -386 238 -112 106
-110 100 -112 272 -1 147 -1 149 19 143 12 -4 124 -44 249 -90 l229 -83 66 44
c42 28 61 46 51 49 -8 3 -133 49 -279 102 -146 52 -268 99 -273 103 -4 4 20
81 53 172 l60 164 -97 184 -98 184 -285 104 c-181 65 -297 103 -320 102 -19
-1 -126 -8 -238 -15z m617 -247 c171 -65 187 -58 -196 -83 l-263 -18 -177 -96
-178 -97 -7 41 c-3 23 -7 55 -7 73 l-1 32 223 72 c122 39 267 86 322 104 55
19 109 32 120 31 11 -2 85 -28 164 -59z m99 -284 c-5 -27 -80 -73 -206 -127
l-112 -49 -102 38 c-57 21 -107 41 -111 45 -4 4 77 28 180 53 218 54 219 54
296 56 51 1 58 -1 55 -16z m-4424 -122 c118 -47 124 -44 -139 -62 l-170 -12
-120 -68 -120 -68 -6 47 c-4 26 -3 50 0 54 9 10 410 145 436 147 11 0 65 -17
119 -38z m76 -199 c0 -17 -37 -42 -129 -85 l-93 -45 -74 30 c-41 17 -73 32
-72 33 4 4 228 63 258 68 46 8 110 7 110 -1z m4230 -207 c18 -21 5 -45 -24
-45 -30 0 -51 31 -34 48 16 16 43 15 58 -3z m-4314 -194 c-10 -16 -36 -13 -43
5 -8 22 18 37 36 20 7 -8 10 -19 7 -25z m-180 -686 l131 -160 -27 -177 -28
-177 -63 -78 c-93 -117 -92 -115 -73 -54 9 30 20 65 25 78 6 16 5 23 -4 23
-15 -1 -177 -46 -183 -52 -2 -3 -26 -105 -54 -228 -28 -123 -52 -225 -54 -227
-11 -11 -277 -98 -361 -118 -243 -57 -510 -79 -607 -51 -56 16 -57 17 -47 44
6 18 29 40 62 60 56 34 250 112 278 112 9 0 94 -30 189 -66 l173 -65 58 21
c62 23 109 59 109 83 0 11 -54 28 -192 62 -106 26 -198 53 -204 59 -12 12 -84
189 -84 206 0 6 25 46 56 90 53 77 54 79 32 85 -13 3 -79 16 -147 29 l-123 24
-124 123 c-68 68 -124 126 -124 129 1 5 40 32 245 170 172 116 353 207 589
298 l100 38 160 -61 161 -61 131 -159z m3806 189 l236 -87 191 -224 191 -224
-40 -249 -40 -250 -107 -129 c-60 -71 -109 -128 -110 -127 -1 1 11 46 27 101
17 54 30 102 30 106 0 14 -280 -65 -285 -81 -2 -8 -36 -152 -75 -320 -39 -167
-74 -308 -78 -312 -15 -14 -402 -138 -507 -162 -269 -61 -487 -88 -725 -90
-141 -1 -173 2 -218 19 -49 18 -53 21 -47 45 4 14 16 35 27 47 32 34 177 105
336 163 l142 53 268 -97 268 -98 80 31 c98 38 152 74 160 107 4 14 5 27 3 29
-2 2 -130 34 -284 70 -154 37 -286 71 -294 75 -12 6 -131 277 -131 298 0 4 36
59 80 122 70 99 78 116 63 122 -10 4 -105 23 -211 42 -163 30 -198 39 -224 61
-51 43 -338 319 -338 325 0 8 295 208 415 282 235 145 437 242 741 358 115 44
211 79 214 80 3 0 112 -39 242 -86z m-5839 -283 c13 -13 -18 -72 -57 -110
l-33 -32 -104 17 c-110 17 -129 25 -129 55 0 54 279 114 323 70z m3271 -154
c13 -9 16 -20 11 -39 -9 -35 -125 -168 -147 -168 -30 0 -28 17 3 24 29 6 29 6
15 33 -35 68 -28 67 -163 24 -68 -21 -123 -37 -123 -34 0 2 25 37 56 76 51 66
60 73 107 84 73 16 219 16 241 0z m819 -309 c54 -68 87 -120 168 -272 41 -77
80 -140 85 -139 6 1 44 5 85 9 l74 6 21 -75 20 -74 -178 -129 c-315 -228 -491
-327 -730 -413 l-137 -50 -273 91 c-150 50 -277 94 -281 98 -4 4 27 50 70 103
43 52 79 94 80 93 2 -2 -20 -46 -48 -99 l-50 -97 28 -11 c38 -16 229 -13 390
5 l133 15 144 81 143 81 41 117 c22 64 68 198 103 298 l62 180 -71 94 c-39 52
-69 96 -67 98 7 7 101 30 127 31 20 1 35 -10 61 -41z m-288 -33 c-86 -42 -217
-85 -301 -101 -22 -3 -36 -4 -33 0 8 8 399 145 414 145 6 -1 -30 -20 -80 -44z
m-1840 -205 c0 -22 -39 -19 -43 3 -3 15 1 18 20 15 12 -2 23 -10 23 -18z
m1175 -50 c12 -23 13 -23 -28 -9 -34 11 -34 29 -2 29 11 0 24 -9 30 -20z
m-1232 -111 l-32 -94 -7 60 c-7 59 -7 61 29 97 19 21 37 36 39 35 1 -2 -12
-46 -29 -98z m682 95 c0 -11 -77 -149 -181 -324 l-97 -165 -104 -47 c-98 -44
-109 -47 -220 -53 -95 -5 -130 -12 -195 -36 -65 -25 -111 -34 -273 -50 -107
-11 -246 -25 -308 -32 l-114 -12 -29 -85 c-16 -47 -35 -90 -42 -96 -7 -6 -54
-26 -106 -45 -73 -27 -108 -47 -163 -93 -47 -39 -73 -55 -77 -47 -12 19 -45
290 -37 298 4 5 47 8 94 7 67 0 102 -6 155 -26 l68 -26 -7 73 c-6 66 -5 73 12
78 66 20 936 107 1069 107 44 0 60 7 150 67 l102 67 129 223 c107 185 133 223
152 223 12 0 22 -3 22 -6z m4844 -161 c15 -25 25 -48 23 -50 -5 -4 -149 46
-160 57 -8 7 93 49 105 43 3 -2 18 -24 32 -50z m-4252 -92 l-3 -119 -31 -6
c-17 -3 -41 -6 -54 -6 -23 0 -24 1 -10 23 16 23 37 83 56 157 12 44 26 70 39
70 3 0 5 -53 3 -119z m3992 -7 c-47 -147 -138 -320 -366 -690 l-129 -211 -222
-102 -222 -102 -672 -61 -672 -62 -22 -61 c-31 -87 -288 -786 -371 -1011 l-70
-191 56 -96 c31 -52 56 -98 56 -101 0 -5 -127 38 -135 46 -8 8 -196 1311 -190
1316 4 4 66 7 138 7 123 0 139 -3 225 -33 51 -17 96 -32 100 -32 4 0 4 35 0
78 -13 143 -34 124 170 151 374 49 731 83 1242 117 l255 18 144 89 c111 70
149 99 170 132 14 22 141 231 281 462 140 232 256 420 257 419 2 -1 -9 -38
-23 -82z m-7569 50 l170 -17 112 -71 c62 -39 112 -74 110 -78 -3 -9 -497 -360
-672 -478 -213 -143 -293 -191 -440 -265 -163 -83 -177 -102 -103 -135 l43
-19 40 43 c48 52 115 96 253 165 152 76 342 195 657 412 154 105 290 198 301
206 21 13 23 11 58 -53 20 -36 36 -70 34 -74 -2 -4 -173 -167 -380 -362 l-378
-355 -182 -65 -183 -65 -22 -61 -22 -61 72 31 c40 17 135 58 212 92 l140 62
225 194 c347 300 548 460 579 460 22 0 33 -56 42 -205 l8 -150 -120 -285 c-83
-194 -130 -293 -148 -310 -15 -14 -41 -47 -59 -75 -47 -75 -294 -288 -499
-432 -51 -35 -153 -100 -228 -143 l-137 -80 -176 -34 c-323 -63 -470 -75 -632
-51 -122 18 -323 76 -354 104 -10 9 -81 82 -157 163 l-140 146 -28 208 -28
207 74 201 c41 111 90 244 109 296 l35 95 197 208 197 207 315 176 315 175
275 49 c151 27 291 47 310 45 19 -2 112 -11 205 -21z m715 -206 c0 -21 -9 -22
-61 -6 -42 12 -42 12 -17 78 l10 25 34 -39 c19 -22 34 -48 34 -58z m5834 59
c25 -19 17 -52 -13 -52 -32 0 -49 28 -32 49 16 19 22 20 45 3z m-73 -248 c-27
-74 -50 -129 -51 -124 0 6 -5 42 -10 80 l-9 70 56 57 c31 32 58 56 60 54 2 -2
-19 -63 -46 -137z m-5645 40 c29 -59 64 -218 94 -434 11 -83 22 -162 25 -176
4 -24 -11 -39 -136 -144 -77 -64 -142 -115 -145 -113 -2 3 35 112 82 243 l85
239 -25 139 c-30 161 -34 297 -10 297 2 0 15 -23 30 -51z m2170 -235 c9 -51
-3 -176 -37 -359 -16 -88 -29 -163 -29 -167 0 -8 -88 21 -94 31 -9 14 77 423
109 519 3 6 13 12 24 12 15 0 22 -9 27 -36z m279 8 c66 -7 80 -14 232 -107 89
-55 162 -103 162 -106 1 -3 -93 -69 -208 -147 l-210 -142 -80 0 c-70 0 -80 2
-86 19 -7 24 14 342 31 463 6 37 6 37 47 32 23 -2 74 -8 112 -12z m-1087 -244
l-3 -203 -52 -86 -52 -86 -150 -71 c-142 -68 -181 -82 -181 -64 0 4 22 35 48
68 l48 62 48 271 49 271 31 5 c141 26 183 33 199 34 17 1 18 -11 15 -201z
m628 125 c-2 -10 -21 -101 -41 -203 -20 -102 -38 -192 -41 -201 -6 -22 -184
-63 -184 -42 0 8 18 84 40 169 34 133 44 159 67 177 151 120 168 131 159 100z
m1279 -80 c53 -68 58 -93 17 -93 -26 0 -122 28 -122 35 0 15 45 115 51 115 5
0 29 -26 54 -57z m-227 -202 l53 -92 -56 -51 c-31 -28 -67 -60 -82 -71 l-25
-20 -129 64 c-71 35 -129 66 -129 69 0 9 295 199 305 196 5 -1 34 -44 63 -95z
m-2564 -53 c-66 -184 -124 -353 -124 -363 0 -7 16 -41 35 -75 20 -35 34 -64
32 -66 -2 -2 -22 4 -45 13 -27 10 -44 24 -47 37 -10 46 -55 379 -52 383 7 6
202 111 209 112 4 1 0 -18 -8 -41z m5975 -121 l54 -20 -24 -18 c-38 -30 -107
-61 -126 -57 -23 4 -28 42 -12 90 14 42 9 42 108 5z m-6284 -216 c8 -80 12
-148 8 -151 -4 -4 -87 -38 -184 -75 l-175 -68 -51 -86 c-61 -102 -86 -152
-103 -206 -22 -70 -48 -112 -101 -164 l-50 -50 72 -95 c39 -53 73 -96 76 -96
11 0 610 -101 625 -106 45 -14 67 -157 49 -328 l-11 -110 127 -233 128 -233
165 -94 165 -94 235 -36 c129 -20 246 -39 260 -43 25 -6 -45 -21 -335 -73
-343 -61 -622 -70 -846 -27 -74 15 -198 47 -275 71 l-139 45 -227 228 -227
228 -24 168 c-16 113 -20 167 -13 167 6 0 193 -36 415 -80 223 -44 406 -78
408 -77 2 2 -142 41 -319 86 -178 45 -368 95 -423 109 l-100 27 -13 95 -13 95
160 414 160 415 108 110 c391 402 438 446 445 429 3 -10 14 -83 23 -162z
m1935 126 c0 -48 -14 -67 -82 -112 -38 -25 -72 -44 -74 -42 -5 5 31 156 39
164 7 6 101 20 110 16 4 -2 7 -14 7 -26z m495 14 c98 -21 226 -62 228 -74 2
-8 -675 -626 -680 -622 -2 1 6 80 17 176 11 96 25 217 31 270 l11 95 132 87
c72 47 140 86 151 86 11 1 61 -8 110 -18z m623 -123 c15 -83 21 -171 12 -161
-24 28 -151 206 -148 208 2 2 23 15 48 29 44 26 45 26 61 6 9 -10 21 -48 27
-82z m3452 -113 c0 -38 -7 -119 -15 -180 -13 -103 -84 -486 -91 -494 -2 -2
-33 7 -69 20 -52 18 -65 27 -65 44 0 31 76 409 104 523 24 92 59 201 86 267
l13 30 18 -70 c10 -38 19 -101 19 -140z m-4831 89 c-10 -59 -20 -108 -21 -109
-31 -26 -178 -112 -178 -104 0 14 40 273 43 275 5 5 144 42 158 43 15 1 14 -9
-2 -105z m1199 -144 l88 -110 27 -123 c15 -67 27 -129 27 -138 0 -9 -76 -186
-168 -395 l-168 -379 -159 -138 c-227 -196 -371 -311 -537 -430 -223 -159
-254 -176 -356 -193 -207 -33 -336 -46 -472 -47 -154 -1 -215 8 -384 60 l-88
27 -148 137 -147 138 -27 95 c-16 55 -30 139 -35 198 -7 101 -2 251 10 262 6
6 127 -28 534 -149 291 -86 461 -128 489 -121 20 5 24 14 30 67 3 34 6 83 6
109 0 42 7 57 67 141 36 52 67 95 69 97 1 2 86 -28 189 -67 103 -39 191 -71
196 -71 5 0 9 23 9 51 0 53 28 379 35 414 2 11 64 70 137 131 385 320 665 544
680 544 4 0 47 -50 96 -110z m2442 -188 l-5 -298 -65 -107 c-85 -140 -76 -129
-155 -170 -128 -64 -362 -167 -395 -173 l-32 -7 16 31 c9 17 41 60 72 96 l55
66 75 388 c41 213 76 391 77 396 3 8 296 71 347 75 13 1 14 -36 10 -297z
m-3400 226 c0 -12 -32 -345 -46 -485 -6 -52 -12 -66 -38 -91 -27 -25 -132 -71
-140 -61 -8 11 -46 161 -46 181 0 12 20 100 43 193 l43 170 85 52 c90 56 99
60 99 41z m4325 -50 c-2 -7 -32 -146 -65 -308 -34 -162 -64 -297 -65 -299 -5
-4 -268 -62 -270 -58 -2 1 25 109 60 240 45 175 67 241 81 252 10 7 71 52 134
99 116 86 133 96 125 74z m-6227 -125 c6 -21 14 -57 18 -80 8 -49 -13 -146
-30 -140 -6 3 -31 13 -56 23 -64 25 -109 55 -159 108 -40 40 -42 46 -26 53 40
15 220 72 231 72 6 1 16 -16 22 -36z m284 6 c45 -18 85 -33 87 -35 4 -3 -33
-69 -87 -153 l-35 -54 -24 64 c-33 87 -45 147 -38 181 4 15 8 28 10 28 2 0 41
-14 87 -31z m1328 -1 c-1 -25 -67 -368 -72 -373 -7 -7 -388 138 -388 148 0 4
78 45 173 92 94 46 195 97 222 114 58 33 65 36 65 19z m-291 -31 c-18 -13
-158 -91 -216 -121 -73 -36 -73 -36 -113 -20 -31 13 -40 21 -35 33 4 9 12 28
17 44 7 20 17 27 36 28 15 0 90 10 167 22 126 21 157 24 144 14z m-810 -134
c-70 -198 -99 -223 -99 -85 0 31 3 66 6 77 5 17 96 92 116 94 4 1 -6 -38 -23
-86z m-766 -15 c98 -36 108 -52 56 -89 -39 -27 -178 -89 -201 -89 -23 0 -22 8
3 94 28 93 37 116 46 116 5 0 47 -14 96 -32z m1090 -44 c42 -4 77 -10 77 -13
0 -3 -13 -12 -29 -19 -42 -19 -81 -51 -81 -67 0 -8 10 -23 22 -35 12 -11 16
-20 9 -20 -14 0 -191 49 -203 56 -6 4 1 32 27 103 4 10 17 12 53 8 26 -4 82
-9 125 -13z m308 -60 c48 -14 270 -93 276 -98 2 -2 -4 -21 -13 -43 l-16 -40
-220 33 c-121 18 -222 34 -224 37 -6 5 122 127 133 127 5 0 34 -7 64 -16z
m-2157 -150 l-66 -105 -23 -250 c-12 -138 -25 -252 -27 -255 -8 -8 -564 133
-846 214 l-273 78 173 13 c99 7 250 26 353 45 l180 33 250 126 c156 79 267
141 295 166 25 22 46 41 47 41 1 0 -27 -47 -63 -106z m1381 -60 c-36 -79 -94
-168 -153 -237 l-38 -44 -97 36 c-53 19 -94 37 -92 40 3 2 46 23 97 46 l93 42
83 126 84 125 28 -31 28 -31 -33 -72z m603 8 c303 -42 354 -51 367 -68 21 -28
20 -30 -31 -44 -56 -16 -125 -7 -343 45 -155 36 -400 112 -366 114 11 0 179
-21 373 -47z m855 -147 l-8 -60 -70 -16 c-39 -9 -89 -19 -113 -23 l-42 -6 24
47 c47 90 61 104 137 137 l74 32 3 -26 c1 -14 -1 -52 -5 -85z m-1206 71 c176
-41 561 -134 585 -142 16 -5 17 -8 3 -41 -9 -20 -14 -38 -12 -40 2 -2 29 8 61
22 86 38 88 37 81 -42 -4 -38 -10 -102 -13 -143 l-7 -75 -64 -25 -64 -26 -415
118 c-229 65 -422 118 -429 118 -7 0 -13 3 -13 8 0 8 132 302 136 302 2 0 69
-16 151 -34z m6352 -62 c185 -24 308 -56 522 -136 28 -10 77 -62 221 -233
l184 -220 57 -250 c32 -137 57 -257 57 -265 0 -8 -91 -222 -201 -477 l-201
-462 -325 -313 -325 -313 -408 -213 -409 -213 -158 -24 c-710 -108 -945 -105
-1320 16 l-123 40 -207 185 -208 185 -33 97 c-43 125 -58 201 -71 344 -11 122
0 333 18 351 11 11 68 -3 626 -163 603 -172 813 -224 870 -216 l44 7 5 62 c3
34 8 105 12 158 l6 97 95 128 c52 71 98 130 102 132 5 1 133 -42 285 -98 152
-55 279 -100 281 -100 3 0 5 21 5 48 0 210 186 1815 215 1863 9 14 213 5 384
-17z m-589 -76 c0 -107 -29 -416 -131 -1403 -6 -60 -14 -113 -18 -117 -4 -4
-61 -18 -126 -32 -168 -33 -195 -37 -195 -24 0 12 55 105 112 190 21 31 38 63
38 71 0 8 -22 88 -50 177 -27 89 -50 171 -50 182 0 25 246 997 254 1005 4 4
112 20 144 22 21 1 22 -3 22 -71z m-350 -8 c0 -9 -116 -647 -171 -940 -12 -63
-25 -119 -29 -123 -7 -8 -835 286 -854 303 -9 9 20 106 35 115 5 4 158 27 341
52 183 26 336 49 340 52 4 3 23 112 43 241 20 129 38 236 40 238 3 3 234 70
248 71 4 1 7 -4 7 -9z m-2462 -564 c23 -78 29 -197 13 -238 -5 -13 -12 -31
-15 -40 -5 -16 -11 -15 -71 7 -122 46 -186 85 -259 157 -52 51 -67 72 -56 76
40 15 346 111 356 112 6 0 21 -33 32 -74z m407 29 c50 -18 102 -38 117 -44
l27 -10 -91 -141 c-50 -77 -94 -140 -98 -140 -4 0 -11 15 -17 33 -6 17 -21 59
-33 92 -37 98 -49 170 -37 216 7 31 13 39 26 34 9 -4 57 -22 106 -40z m374
-142 c-6 -16 -29 -77 -51 -138 -46 -127 -87 -207 -102 -202 -23 8 -32 102 -19
205 l6 54 81 54 c44 30 84 54 88 54 4 0 3 -12 -3 -27z m-1169 -112 c90 -33
136 -54 138 -65 5 -22 -44 -66 -114 -103 -84 -44 -235 -96 -247 -84 -12 12 5
87 45 196 16 44 31 86 33 93 2 6 6 12 8 12 1 0 63 -22 137 -49z m1566 -62
c205 -22 378 -53 519 -94 74 -21 371 -123 383 -131 7 -5 -34 -107 -44 -111
-13 -5 -615 79 -770 107 -119 22 -204 43 -292 72 -51 16 -62 23 -57 37 3 9 16
44 28 79 12 34 27 62 33 62 6 0 96 -9 200 -21z m-645 -226 c54 -60 54 -53 -2
-164 -72 -144 -156 -263 -265 -378 -11 -12 -32 -7 -146 34 -73 27 -136 51
-141 55 -4 3 58 34 137 69 l144 62 118 175 c65 96 121 174 124 174 4 0 17 -12
31 -27z m859 -143 c610 -79 550 -67 577 -115 13 -22 23 -43 23 -47 0 -3 -15
-11 -34 -18 -43 -14 -150 -1 -386 46 -221 44 -482 112 -630 164 -137 48 -178
51 450 -30z m-345 -144 c266 -59 918 -215 921 -219 0 -1 -7 -83 -17 -182 -10
-99 -18 -189 -18 -200 -1 -16 -19 -27 -90 -52 -48 -18 -95 -33 -102 -33 -8 0
-127 31 -264 69 -453 125 -962 261 -979 261 -9 0 -16 4 -16 10 0 5 34 80 76
167 42 87 87 181 100 210 l23 51 38 -8 c21 -5 169 -38 328 -74z"/>
<path d="M11436 8358 c-3 -13 -6 -26 -6 -30 0 -18 77 -91 211 -199 199 -160
354 -311 536 -523 l153 -178 0 -77 c0 -106 18 -236 38 -279 22 -48 57 -60 120
-43 26 7 51 16 56 21 5 5 -16 122 -50 277 l-58 268 -121 124 c-193 198 -341
318 -627 504 -95 62 -189 123 -209 135 l-37 22 -6 -22z"/>
<path d="M285 4850 c11 -5 27 -9 35 -9 9 0 8 4 -5 9 -11 5 -27 9 -35 9 -9 0
-8 -4 5 -9z"/>
<path d="M6251 2797 c-24 -63 -44 -52 304 -172 299 -102 780 -243 792 -232 2
2 -34 18 -79 35 -60 22 -852 332 -995 389 -7 3 -17 -6 -22 -20z"/>
<path d="M9810 998 c19 -19 1637 -545 1646 -535 9 9 41 108 36 111 -45 26
-437 128 -1237 320 -220 53 -411 99 -425 103 -14 3 -23 4 -20 1z"/>
<path d="M10772 568 c-11 -29 -17 -56 -14 -59 6 -6 667 -226 832 -278 143 -44
425 -122 600 -166 102 -25 194 -48 205 -52 11 -3 18 -3 14 0 -7 9 -1595 607
-1609 607 -5 0 -18 -24 -28 -52z"/>
</g>
</svg>
