<?xml version="1.0" encoding="iso-8859-1"?>
<!-- Uploaded to: SVG Repo, www.svgrepo.com, Generator: SVG Repo Mixer Tools -->
<!DOCTYPE svg PUBLIC "-//W3C//DTD SVG 1.1//EN" "http://www.w3.org/Graphics/SVG/1.1/DTD/svg11.dtd">
<svg fill="#000000" version="1.1" id="Capa_1" xmlns="http://www.w3.org/2000/svg" xmlns:xlink="http://www.w3.org/1999/xlink" 
	 width="800px" height="800px" viewBox="0 0 548.882 548.882"
	 xml:space="preserve">
<g>
	<g>
		<path d="M405.021,297.39c3.987,72.324,26.43,135.225,55.404,180.152c49.67-45.51,82.583-108.992,88.456-180.152H405.021z"/>
		<path d="M460.423,71.339c-28.975,44.927-51.417,107.832-55.401,180.151h143.86C543.009,180.33,510.093,116.847,460.423,71.339z"/>
		<path d="M297.39,0.001V251.49h61.692c4.112-83.55,30.284-155.94,65.031-208.248C387.057,19.203,343.861,3.835,297.39,0.001z"/>
		<path d="M251.489,548.88V297.39h-64.756c-4.079,82.811-29.826,154.643-64.113,206.838
			C160.151,529.076,204.117,544.972,251.489,548.88z"/>
		<path d="M186.736,251.49h64.753V0.001c-47.372,3.907-91.335,19.804-128.866,44.651C156.911,96.847,182.658,168.684,186.736,251.49
			z"/>
		<path d="M86.549,475.767c28.418-44.799,50.316-107.012,54.251-178.377H0C5.796,367.632,37.947,430.39,86.549,475.767z"/>
		<path d="M86.552,73.111C37.95,118.491,5.796,181.248,0,251.49h140.8C136.865,180.128,114.97,117.912,86.552,73.111z"/>
		<path d="M297.39,548.88c46.472-3.834,89.67-19.205,126.727-43.244c-34.746-52.305-60.919-124.695-65.034-208.248H297.39V548.88z"
			/>
	</g>
</g>
</svg>