<?xml version="1.0" encoding="iso-8859-1"?>
<!-- Uploaded to: SVG Repo, www.svgrepo.com, Generator: SVG Repo Mixer Tools -->
<svg height="800px" width="800px" version="1.1" id="Capa_1" xmlns="http://www.w3.org/2000/svg" xmlns:xlink="http://www.w3.org/1999/xlink" 
	 viewBox="0 0 457.541 457.541" xml:space="preserve">
<g>
	<g>
		<path style="fill:#010002;" d="M399.715,221.164c-34.636,0.52-86.789,1.284-135.203,41.383l-30.116-31.929L400.909,73.329
			c33.449,39.237,52.982,87.155,56.559,138.714C445.755,215.441,423.694,220.79,399.715,221.164z M227.958,236.153l29.881,31.645
			c-11.64,12.575-21.037,26.45-28.003,41.253c-16.599,33.831-19.013,67.199-20.793,91.536c-1.65,22.898-7.909,44.179-11.762,55.51
			c-51.6-6.795-96.356-28.06-133.089-63.159L227.958,236.153z M219.008,397.619c2.048-29.108,4.65-65.346,26.743-100.802
			l0.236-0.382c0.171-0.268,0.35-0.528,0.545-0.821c0.187-0.285,0.39-0.553,0.537-0.829c4.804-7.259,10.388-14.339,16.607-21.061
			l115.848,122.595c-47.747,40.667-109.151,61.972-172.236,59.843C211.839,441.977,217.309,420.85,219.008,397.619z
			 M163.864,207.012l-0.935,0.536c-0.309,0.195-0.618,0.39-1.195,0.707c-36.603,20.208-72.978,20.858-102.184,21.378
			c-23.272,0.439-44.658,4.788-59.095,8.559C1.618,174.92,26.052,115.127,69.418,69.42l116.255,122.205
			C178.642,197.453,171.31,202.647,163.864,207.012z M56.047,239.437c24.402-0.488,57.835-1.138,92.471-15.859
			c15.225-6.186,29.604-14.875,42.732-25.776l30.011,31.547L56.973,385.605C23.679,346.815,3.991,299.361,0,248.232
			C11.567,244.948,33.181,239.835,56.047,239.437z M74.58,62.965c47.26-41.35,108.378-63.265,171.497-61.647
			c-4.666,14.534-10.323,36.164-11.965,59.908c-2.357,34.506-5.568,81.66-43.772,123.441L74.58,62.965z M227.698,223.773
			l-30.263-31.783c42.577-46.138,46.162-98.226,48.536-132.772c1.634-23.882,8.161-45.674,12.225-57.201
			c51.275,6.348,98.055,28.409,135.455,63.891L227.698,223.773z M457.541,224.139c-1.683,63.273-26.751,122.798-70.743,167.985
			L271.454,270.025c43.772-35.936,91.032-36.627,125.619-37.123C420.881,232.528,442.763,228.049,457.541,224.139z"/>
	</g>
</g>
</svg>