<?xml version="1.0" standalone="no"?>
<!DOCTYPE svg PUBLIC "-//W3C//DTD SVG 20010904//EN"
 "http://www.w3.org/TR/2001/REC-SVG-20010904/DTD/svg10.dtd">
<svg version="1.0" xmlns="http://www.w3.org/2000/svg"
 width="960.000000pt" height="1280.000000pt" viewBox="0 0 960.000000 1280.000000"
 preserveAspectRatio="xMidYMid meet">
<metadata>
Created by potrace 1.15, written by Peter Selinger 2001-2017
</metadata>
<g transform="translate(0.000000,1280.000000) scale(0.100000,-0.100000)"
fill="#000000" stroke="none">
<path d="M4307 11325 c-76 -16 -168 -59 -243 -115 -96 -72 -194 -229 -224
-360 -21 -87 -16 -239 10 -362 13 -60 20 -111 16 -115 -3 -4 -20 1 -36 11 -36
20 -66 14 -73 -16 -9 -33 40 -169 97 -268 69 -120 81 -134 116 -127 27 6 28 5
34 -55 12 -102 39 -159 107 -221 55 -51 68 -72 150 -243 l91 -188 -50 -95
c-30 -59 -54 -122 -61 -162 l-13 -65 -63 7 c-36 5 -111 17 -169 28 -57 11
-157 25 -222 31 -162 15 -164 16 -164 45 0 40 -97 97 -215 124 -28 7 -84 34
-126 62 -137 90 -149 92 -409 86 -198 -5 -241 -9 -360 -35 -258 -55 -313 -89
-399 -242 l-43 -75 3 -150 c2 -82 -1 -195 -5 -251 -11 -129 0 -178 71 -311 65
-123 87 -139 211 -155 113 -13 140 -8 205 44 55 44 81 81 93 131 9 39 24 42
94 18 74 -26 87 -26 127 -1 40 24 57 78 42 134 -6 21 -9 39 -7 40 2 1 40 15
86 30 85 28 110 27 174 -5 10 -5 27 -9 37 -9 24 0 36 -16 19 -23 -7 -3 3 -6
22 -6 53 -1 27 -16 -106 -62 -150 -52 -245 -122 -308 -226 -41 -70 -48 -95
-71 -263 -8 -58 -21 -130 -30 -160 -9 -30 -19 -95 -22 -145 -7 -120 9 -156
122 -272 68 -70 85 -92 80 -110 -3 -12 8 -58 25 -105 27 -74 39 -91 110 -163
53 -54 87 -98 103 -135 13 -30 34 -63 45 -74 36 -32 125 -46 242 -39 l105 6
53 46 c30 25 76 79 103 120 71 105 124 141 211 141 76 1 148 46 148 93 0 8
-13 34 -30 58 -16 24 -26 47 -22 51 4 3 43 14 87 23 96 20 161 53 236 123 l57
52 26 -77 c14 -43 32 -109 41 -147 20 -91 45 -145 88 -192 19 -22 46 -66 60
-100 32 -79 80 -153 156 -238 33 -38 61 -72 61 -75 1 -142 11 -227 39 -321 17
-58 31 -107 31 -110 0 -4 -16 -4 -35 -2 -39 5 -89 -12 -120 -39 -26 -22 -88
-39 -150 -39 -65 -1 -113 -19 -164 -61 -31 -26 -41 -41 -41 -65 0 -24 -6 -34
-27 -44 -16 -7 -89 -41 -164 -75 -172 -79 -229 -116 -329 -212 -112 -106 -172
-200 -211 -326 -18 -56 -51 -154 -75 -218 -58 -156 -77 -245 -78 -364 -1 -175
32 -351 85 -458 17 -32 39 -89 51 -125 58 -188 255 -465 543 -762 93 -96 102
-109 107 -151 3 -24 16 -63 30 -84 60 -98 130 -238 114 -232 -11 4 -25 -7 -46
-38 -68 -98 -8 -181 95 -130 23 11 18 3 -23 -34 -30 -28 -49 -52 -43 -55 13
-9 60 15 85 43 11 12 22 21 26 21 3 0 15 -24 26 -52 16 -46 19 -79 19 -248 -1
-116 -5 -215 -13 -245 -6 -27 -14 -70 -17 -95 -7 -56 -24 -302 -22 -310 1 -3
-10 -34 -24 -70 -52 -130 -52 -128 -20 -190 34 -64 48 -69 140 -45 49 12 115
15 331 15 l270 -1 50 43 c43 37 54 54 76 121 28 84 28 103 1 262 -20 117 -26
143 -49 187 -11 20 -24 67 -29 104 -9 63 -8 70 15 105 49 74 107 238 113 320
6 85 -1 118 -54 226 -25 52 -50 87 -90 122 -64 57 -125 144 -152 216 -12 33
-21 91 -25 170 -10 180 -15 211 -43 252 -23 34 -26 48 -26 128 0 50 3 133 8
185 13 160 -22 264 -135 398 l-59 71 52 17 c56 18 123 50 174 84 l31 21 68
-52 c60 -45 72 -51 105 -46 60 8 110 38 186 111 39 38 81 74 91 80 11 6 39 35
62 64 23 29 48 56 57 59 9 4 37 -16 77 -56 l62 -61 72 16 c52 12 78 23 91 40
28 36 41 11 51 -99 10 -123 39 -177 118 -219 l32 -17 -1 -98 c0 -104 8 -137
58 -239 17 -32 36 -84 43 -114 41 -179 161 -324 311 -375 59 -20 164 -116 156
-144 -2 -11 2 -29 10 -41 9 -12 27 -52 40 -88 14 -37 36 -96 50 -132 22 -57
25 -84 28 -227 3 -153 5 -165 33 -230 16 -37 35 -86 42 -108 20 -63 78 -169
113 -205 47 -49 119 -79 170 -72 23 3 53 12 67 21 33 21 113 79 122 89 73 78
93 111 136 219 l47 118 0 175 0 175 -52 105 c-55 110 -114 218 -142 260 -10
14 -23 40 -31 58 -11 30 -10 35 13 70 31 45 113 226 121 267 4 17 -1 65 -12
109 -17 70 -17 84 -4 144 18 87 12 173 -29 416 l-34 196 31 57 c17 32 39 79
49 105 9 26 26 55 36 64 29 27 23 52 -38 159 -35 62 -56 110 -55 126 1 15 -5
32 -13 39 -10 8 -15 31 -15 64 -1 28 -8 69 -16 91 -9 22 -19 63 -24 90 -4 28
-12 61 -17 75 -6 14 -13 48 -17 75 -4 28 -14 69 -23 92 -14 39 -14 46 1 83 15
37 15 48 1 127 -8 47 -15 110 -15 140 0 29 -7 88 -16 130 -28 136 -91 234
-197 305 -34 22 -72 50 -85 62 -13 11 -49 34 -80 51 -41 22 -67 46 -99 90 -23
33 -54 76 -68 95 -103 142 -101 126 -33 340 43 134 67 235 89 365 28 163 30
195 26 340 -3 122 -9 178 -26 235 -56 198 -53 174 -31 288 31 161 27 269 -14
400 -19 59 -36 126 -39 149 -3 23 -17 68 -32 100 -16 34 -33 94 -40 147 -19
127 -66 218 -164 317 -109 108 -188 146 -336 158 -61 6 -123 14 -138 20 -15 6
-57 36 -94 67 -90 74 -287 170 -495 239 -90 30 -172 55 -184 55 -34 0 -114 59
-114 83 0 12 -3 32 -6 45 -6 20 -4 22 17 17 13 -3 31 0 41 7 23 19 68 187 75
283 8 108 -1 153 -33 167 -22 10 -28 8 -59 -22 l-34 -33 -5 24 c-2 13 -9 67
-14 119 -12 115 -49 231 -102 321 -55 93 -171 199 -274 249 -133 66 -250 82
-389 55z m151 -8509 c15 -38 15 -40 -7 -58 -34 -27 -89 -24 -102 6 -10 21 -7
31 21 71 29 43 33 45 52 33 11 -8 27 -31 36 -52z"/>
</g>
</svg>
