<?xml version="1.0" standalone="no"?>
<!DOCTYPE svg PUBLIC "-//W3C//DTD SVG 20010904//EN"
 "http://www.w3.org/TR/2001/REC-SVG-20010904/DTD/svg10.dtd">
<svg version="1.0" xmlns="http://www.w3.org/2000/svg"
 width="1280.000000pt" height="858.000000pt" viewBox="0 0 1280.000000 858.000000"
 preserveAspectRatio="xMidYMid meet">
<metadata>
Created by potrace 1.15, written by Peter Selinger 2001-2017
</metadata>
<g transform="translate(0.000000,858.000000) scale(0.100000,-0.100000)"
fill="#000000" stroke="none">
<path d="M4297 8573 c-17 -17 -6 -66 22 -94 35 -34 27 -43 -34 -33 -43 6 -45
5 -45 -18 0 -31 26 -55 120 -108 41 -23 93 -56 114 -73 22 -17 36 -25 32 -19
-4 7 -5 12 -3 12 3 0 14 -16 26 -36 39 -65 -7 -98 -158 -115 -53 -5 -110 -14
-127 -20 -37 -12 -68 -43 -61 -61 8 -22 111 -40 188 -32 l70 7 144 -73 c80
-39 154 -83 164 -96 35 -45 47 -153 71 -649 7 -157 39 -395 61 -452 5 -13 9
-51 9 -84 0 -37 30 -203 79 -432 44 -205 96 -460 116 -567 42 -222 68 -327
132 -523 24 -75 42 -141 38 -146 -3 -5 -36 -19 -73 -32 -37 -12 -101 -35 -142
-52 -129 -51 -165 -57 -405 -67 -306 -13 -450 -26 -510 -45 -38 -13 -117 -19
-320 -25 -417 -13 -445 -17 -592 -84 -44 -20 -87 -36 -95 -36 -32 0 -336 -155
-390 -199 -108 -87 -223 -148 -302 -161 -148 -24 -176 -31 -176 -44 0 -8 6
-18 13 -23 17 -14 154 -44 171 -37 26 10 27 -15 1 -31 -84 -51 -78 -45 -59
-66 24 -26 40 -24 125 15 41 18 104 43 141 55 50 17 83 36 128 76 90 81 134
99 181 75 31 -17 23 -54 -36 -164 -61 -114 -69 -158 -35 -194 12 -12 25 -22
30 -22 5 0 36 46 70 103 67 110 102 157 192 254 32 34 74 87 93 117 45 71 81
90 165 88 36 0 227 -21 425 -46 487 -61 583 -69 775 -70 146 -1 172 2 222 21
32 12 59 19 62 15 15 -26 15 -114 0 -172 -20 -78 -15 -225 9 -281 9 -20 43
-84 75 -143 101 -181 178 -420 231 -715 28 -153 27 -202 -1 -228 -33 -30 -57
-35 -197 -39 -69 -2 -209 -8 -311 -13 -102 -5 -324 -14 -495 -20 -170 -6 -334
-15 -364 -21 -30 -5 -104 -10 -165 -10 -64 0 -135 -6 -166 -14 -37 -10 -59
-11 -67 -4 -22 18 -56 5 -66 -27 -18 -61 -57 -134 -75 -144 -11 -6 -30 -34
-43 -63 -20 -44 -23 -67 -22 -140 2 -67 -2 -89 -13 -99 -36 -30 -455 -5 -619
37 -66 17 -184 34 -435 64 -204 24 -424 56 -510 76 -89 20 -646 202 -694 226
-100 51 -299 78 -575 78 -280 0 -411 -25 -411 -79 0 -9 24 -38 54 -64 43 -37
62 -47 91 -47 20 0 48 -6 63 -14 15 -8 54 -17 87 -21 139 -17 277 -79 362
-163 31 -30 66 -81 97 -142 107 -210 180 -289 252 -275 20 3 74 26 119 50 176
92 307 74 918 -129 175 -58 323 -106 329 -106 7 0 70 -29 142 -65 172 -86 250
-106 441 -112 156 -5 302 5 467 33 83 15 101 15 129 4 60 -25 270 -253 346
-376 15 -25 38 -57 50 -72 l22 -27 34 33 35 34 21 -21 c14 -14 21 -34 21 -61
0 -56 23 -66 92 -40 29 11 61 20 71 20 10 0 45 -23 79 -51 34 -28 72 -55 86
-60 l25 -10 -6 -102 c-4 -56 -4 -112 0 -125 3 -14 23 -32 48 -45 53 -27 143
-110 155 -143 l10 -24 202 -1 c265 -1 295 -5 347 -52 38 -34 46 -37 104 -37
48 0 76 7 125 30 78 37 106 38 128 5 9 -14 20 -25 25 -25 5 0 29 16 55 35 28
22 57 35 75 35 27 0 29 -3 29 -35 0 -21 6 -38 13 -41 8 -3 54 -1 103 5 l89 9
65 62 c36 34 75 69 88 78 21 14 25 13 46 -7 l23 -22 119 43 c131 47 128 43
110 131 -6 34 -4 40 27 70 43 40 59 85 46 129 -5 18 -9 56 -9 84 l0 52 77 53
c66 45 86 54 141 61 35 4 94 17 131 29 l67 22 164 -42 c91 -23 298 -63 460
-90 480 -80 764 -148 1220 -291 302 -95 422 -119 642 -130 192 -9 185 -7 500
-124 116 -42 229 -65 523 -106 628 -87 824 -137 1006 -261 32 -21 84 -45 120
-54 35 -9 107 -30 159 -46 108 -33 191 -45 406 -59 89 -5 171 -16 200 -26 31
-10 62 -14 88 -10 23 3 105 10 183 15 155 10 199 24 208 66 3 14 8 37 11 52 3
15 14 39 25 54 10 15 19 33 19 40 0 19 -59 106 -76 113 -8 3 -21 21 -29 40
-10 23 -23 36 -42 41 -33 8 -63 33 -63 51 0 7 -19 18 -42 25 -91 24 -598 -10
-668 -46 -29 -15 -106 1 -175 36 -26 13 -85 25 -164 35 -69 8 -136 21 -150 29
-14 8 -53 23 -86 34 -33 11 -314 141 -625 289 -311 148 -594 280 -630 294 -36
14 -94 29 -130 33 -163 17 -534 113 -789 204 -75 27 -154 52 -176 56 -93 14
-271 97 -420 195 -55 37 -128 83 -162 104 -35 21 -63 41 -63 46 0 5 15 17 33
28 17 12 45 34 61 51 24 25 31 28 48 18 18 -11 27 -4 87 60 54 57 73 71 89 66
17 -4 45 18 137 107 105 102 118 111 144 105 26 -6 34 0 80 54 27 34 61 80 75
104 50 87 111 293 126 427 24 204 39 260 70 260 20 0 24 9 34 87 4 24 2 44 -4
48 -5 3 -10 26 -10 49 0 24 -11 68 -24 97 -12 30 -26 66 -30 82 -3 15 -13 27
-22 27 -27 0 -54 -20 -54 -40 0 -16 -4 -18 -22 -11 -13 5 -63 15 -111 21 -97
13 -103 17 -155 100 -50 79 -81 110 -113 110 -14 0 -32 -6 -38 -14 -6 -8 -32
-17 -57 -21 -36 -5 -55 -1 -102 20 -31 14 -87 30 -124 35 -46 5 -101 23 -170
55 -117 53 -168 69 -182 55 -18 -18 -99 -11 -142 12 l-41 22 -132 -19 c-172
-23 -256 -17 -288 20 -13 14 -23 29 -23 33 0 4 16 25 35 46 19 22 35 46 35 55
0 8 8 23 18 34 12 15 14 21 5 24 -7 3 -13 14 -13 26 -1 21 -2 21 -23 -5 -13
-16 -26 -28 -29 -28 -4 0 -19 16 -34 36 -35 46 -22 57 61 48 70 -7 128 12 186
60 31 25 34 32 23 44 -8 7 -14 19 -14 26 0 6 -12 17 -27 24 -16 7 -48 24 -73
39 -25 15 -72 35 -105 44 l-60 16 35 22 c27 16 51 21 106 21 39 0 92 7 118 16
34 12 67 15 112 11 36 -2 81 0 102 5 20 5 46 12 58 15 17 4 32 -9 72 -60 56
-70 98 -96 129 -78 16 9 14 11 -12 11 -32 1 -77 46 -80 80 0 9 -11 29 -23 45
-12 15 -22 32 -22 36 0 21 51 6 104 -31 31 -22 60 -40 64 -40 4 1 -20 25 -53
55 -51 46 -58 58 -49 72 6 10 21 19 33 21 13 2 21 11 21 22 0 10 3 25 6 33 4
12 0 14 -15 10 -26 -7 -51 13 -51 39 0 31 30 33 84 5 65 -33 84 -38 91 -27 9
15 57 11 79 -5 11 -8 27 -15 35 -15 12 1 11 4 -4 13 -45 26 -85 61 -85 74 0 7
-10 18 -22 22 -13 5 -50 30 -83 55 -67 51 -109 64 -156 47 -58 -20 -63 -13
-23 29 29 30 47 40 70 40 19 0 34 6 38 15 4 12 -4 15 -39 15 -50 0 -62 11 -37
32 47 42 110 58 166 43 22 -6 28 -5 24 6 -3 9 -31 17 -84 23 -43 5 -81 12 -84
16 -3 4 -30 -2 -60 -13 -43 -17 -50 -22 -33 -27 l22 -5 -25 -28 c-16 -18 -32
-27 -46 -25 -32 5 -33 25 -1 42 20 11 23 15 11 16 -30 0 -20 13 44 60 165 122
213 151 237 145 20 -5 23 -3 18 14 -7 30 20 34 55 10 29 -21 30 -21 20 -2 -6
11 -18 25 -26 33 -24 19 -19 47 9 66 25 16 25 17 8 34 -17 16 -18 16 -25 -1
-8 -20 -49 -20 -113 1 -62 20 -71 31 -41 47 14 8 26 18 26 24 0 5 -18 0 -40
-11 -21 -11 -57 -20 -79 -20 -36 0 -47 7 -96 55 l-55 55 97 0 c53 0 93 3 90 6
-4 4 -64 10 -134 15 -71 4 -149 13 -174 19 -45 11 -76 5 -174 -35 -43 -18 15
32 73 63 48 25 76 32 175 42 64 6 127 9 140 5 19 -5 20 -5 5 7 -9 7 -25 18
-35 25 -15 9 -10 10 27 6 25 -2 65 -11 89 -19 58 -18 62 -18 26 6 -46 31 -193
69 -317 82 -26 3 -22 17 7 24 14 3 25 10 25 14 0 9 -76 -4 -140 -24 -76 -23
-280 -9 -280 20 0 21 73 90 121 115 26 13 54 19 75 17 19 -2 35 1 37 6 6 19
111 -22 157 -61 24 -20 41 -31 38 -23 -8 24 -110 99 -150 110 -48 14 -50 34
-3 28 21 -2 31 0 26 5 -14 14 -139 21 -164 9 -12 -6 -53 -18 -92 -28 -84 -21
-152 -67 -192 -129 -15 -25 -31 -45 -35 -45 -7 0 -48 86 -48 101 0 5 15 12 33
17 34 9 36 30 2 23 -60 -11 -69 -7 -93 41 -24 47 -54 201 -45 225 4 10 23 13
70 10 52 -3 63 -1 58 11 -3 7 -5 15 -5 17 0 2 -16 7 -35 11 -19 3 -37 10 -40
14 -9 15 14 21 37 10 22 -11 22 -10 -1 8 -24 19 -24 21 -8 46 10 14 22 26 29
26 17 0 0 157 -23 209 -10 24 -19 51 -19 60 0 10 -11 27 -24 38 -14 13 -29 44
-39 84 -36 143 -44 189 -35 189 16 0 84 -38 97 -54 8 -9 18 -16 24 -16 6 0 -4
14 -23 30 -38 33 -102 70 -121 70 -6 0 -31 18 -54 39 -24 22 -62 45 -85 52
-23 7 -44 19 -47 26 -3 7 -18 13 -33 13 -16 0 -30 5 -32 10 -2 7 -14 7 -36 1
-26 -8 -34 -7 -39 5 -3 9 3 24 13 35 17 16 24 17 57 7 52 -16 73 3 29 26 -43
22 -47 34 -15 47 21 8 24 12 13 19 -12 8 -11 13 6 32 30 33 59 84 88 156 27
69 70 231 63 238 -3 3 -35 -56 -71 -131 -63 -129 -68 -137 -92 -131 -31 8 -68
-10 -60 -31 4 -8 -5 -28 -19 -45 -26 -30 -26 -30 -32 -9 -6 22 -6 22 -37 -8
-17 -16 -79 -50 -137 -76 -134 -58 -154 -73 -227 -170 -52 -70 -68 -85 -134
-118 -41 -21 -94 -58 -118 -82 -24 -25 -48 -45 -52 -45 -10 0 1 30 21 55 10
13 6 11 -13 -5 -15 -14 -48 -51 -72 -83 -40 -54 -44 -64 -44 -118 0 -32 -4
-59 -9 -59 -5 0 -42 -22 -83 -50 -77 -52 -134 -111 -161 -170 -19 -40 -86 -74
-134 -68 -40 4 -50 34 -78 230 -14 95 -30 198 -36 228 -22 114 -79 287 -144
445 -7 17 -16 41 -20 55 -4 14 -15 43 -25 65 -10 22 -28 89 -40 150 -12 60
-30 134 -40 165 -10 30 -23 88 -28 128 -11 76 -17 89 -123 262 -36 58 -82 136
-104 175 -21 38 -55 85 -74 104 -34 33 -267 181 -284 181 -5 0 -35 20 -67 45
-63 48 -63 48 -73 38z m2110 -1429 c-3 -3 -12 -4 -19 -1 -8 3 -5 6 6 6 11 1
17 -2 13 -5z m-27 -58 c0 -36 -22 -68 -56 -82 -20 -8 -38 -13 -41 -11 -2 3 3
19 11 36 29 56 86 93 86 57z m435 -86 c7 -12 -12 -12 -40 0 -18 8 -17 9 7 9
15 1 30 -3 33 -9z m-125 -14 c0 -11 -19 -15 -25 -6 -3 5 1 10 9 10 9 0 16 -2
16 -4z m116 -79 c41 -65 41 -89 1 -57 -22 18 -38 21 -90 18 l-62 -3 -3 32 c-5
46 26 73 78 70 37 -2 43 -7 76 -60z m124 24 c31 -21 70 -95 70 -132 l0 -28
-71 33 c-65 30 -73 37 -100 90 -16 31 -29 58 -29 61 0 11 108 -9 130 -24z
m-117 -140 c18 -18 3 -21 -77 -15 -74 7 -88 17 -36 27 36 7 101 0 113 -12z
m118 -1 c5 0 9 -4 9 -10 0 -16 -26 -12 -41 7 -12 15 -12 16 4 10 10 -4 23 -7
28 -7z m-241 -30 c11 -7 7 -10 -18 -10 -20 0 -31 4 -27 10 8 13 26 13 45 0z
m298 -12 c13 -13 16 -38 5 -38 -5 0 -21 11 -38 25 l-30 24 26 1 c14 0 30 -5
37 -12z m-238 -28 c-20 -13 -50 -13 -50 0 0 6 15 10 33 10 24 0 28 -3 17 -10z
m185 -116 c42 -17 53 -32 61 -84 6 -38 5 -43 -9 -37 -11 4 -17 1 -17 -8 0 -8
7 -15 15 -15 9 0 15 -9 15 -25 0 -13 9 -39 20 -57 22 -36 26 -73 10 -83 -14
-9 -77 32 -97 62 -15 22 -14 25 2 37 17 12 17 13 -4 19 -12 3 -21 13 -21 24 0
10 -16 54 -35 98 -44 100 -36 110 60 69z m-106 -20 c28 -36 76 -177 66 -194
-12 -19 -26 -10 -59 43 -36 55 -77 97 -113 116 -45 23 -13 59 54 60 22 1 37
-6 52 -25z m-29 -123 c15 -33 6 -36 -29 -10 -19 14 -31 32 -31 46 0 24 0 24
24 6 14 -10 30 -29 36 -42z m154 -249 c13 -25 12 -30 -3 -51 -25 -33 -41 -19
-41 35 0 52 21 60 44 16z m136 -3 c0 -11 -27 -12 -34 0 -3 4 -3 11 0 14 8 8
34 -3 34 -14z m-130 -200 c0 -5 -4 -9 -10 -9 -5 0 -10 7 -10 16 0 8 5 12 10 9
6 -3 10 -10 10 -16z m-56 -122 c10 -17 20 -43 22 -56 2 -19 -1 -22 -18 -18
-14 4 -32 -3 -51 -19 -40 -34 -60 -17 -29 26 12 16 22 42 22 58 0 52 26 57 54
9z m56 17 c0 -8 -4 -12 -10 -9 -5 3 -10 10 -10 16 0 5 5 9 10 9 6 0 10 -7 10
-16z m198 -126 c11 -25 18 -49 14 -52 -10 -11 -22 -6 -22 9 0 8 -9 29 -20 47
-24 40 -28 81 -6 58 8 -8 23 -36 34 -62z m-212 -9 c-3 -15 -1 -29 5 -31 7 -2
7 -12 0 -31 -11 -29 -31 -37 -31 -11 0 9 -6 14 -12 12 -14 -5 -26 -40 -27 -83
-1 -23 -9 -35 -31 -48 l-30 -18 6 46 c5 32 3 45 -6 45 -7 0 -10 7 -6 15 3 8
-2 19 -11 24 -15 8 -15 11 0 35 18 27 126 88 141 79 4 -3 5 -18 2 -34z m133
-38 l34 -68 -29 -37 c-16 -20 -32 -36 -36 -36 -5 0 -8 24 -8 53 0 28 -3 76 -6
105 -4 28 -3 52 2 52 5 -1 24 -32 43 -69z m241 29 c-11 -20 -30 -28 -30 -12 0
11 22 32 32 32 5 0 4 -9 -2 -20z m85 -64 c18 -13 18 -14 -3 -25 -22 -12 -92
-15 -92 -4 0 3 7 15 17 25 19 21 52 23 78 4z m-432 -49 c-3 -5 -9 -3 -14 4 -4
7 -5 17 -2 22 3 5 9 3 14 -4 4 -7 5 -17 2 -22z m-53 -7 c0 -5 -7 -10 -16 -10
-8 0 -12 5 -9 10 3 6 10 10 16 10 5 0 9 -4 9 -10z m470 0 c-8 -5 -22 -10 -30
-10 -13 0 -13 1 0 10 8 5 22 10 30 10 13 0 13 -1 0 -10z m-139 -21 c-26 -21
-37 -19 -28 6 4 8 17 15 29 15 l23 -1 -24 -20z m-306 -56 c-7 -60 -25 -91 -44
-79 -19 12 -13 81 10 110 32 41 41 33 34 -31z m165 -22 c-6 -12 -16 -19 -21
-15 -6 4 -4 13 7 25 21 24 29 18 14 -10z m-230 -22 c0 -38 -1 -40 -27 -37 -48
5 -40 78 8 78 16 0 19 -8 19 -41z m400 27 c0 -3 -4 -8 -10 -11 -5 -3 -10 -1
-10 4 0 6 5 11 10 11 6 0 10 -2 10 -4z m-50 -66 c-12 -16 -26 -30 -31 -30 -11
0 -4 16 19 43 25 29 35 19 12 -13z m230 11 c0 -14 -18 -23 -30 -16 -6 4 -8 11
-5 16 8 12 35 12 35 0z m-185 -41 c-10 -11 -23 -20 -28 -20 -6 0 -2 9 8 20 10
11 23 20 28 20 6 0 2 -9 -8 -20z m123 -3 c2 -10 -3 -17 -12 -17 -10 0 -16 9
-16 21 0 24 23 21 28 -4z m-32 -18 c10 -17 -128 -150 -142 -136 -12 12 10 53
54 99 43 47 74 59 88 37z m-328 -36 c-4 -21 -36 -29 -51 -14 -9 9 -8 14 3 21
25 16 52 12 48 -7z m492 -13 c0 -6 -12 -15 -27 -21 -16 -6 -40 -18 -55 -26
-16 -8 -28 -11 -28 -7 0 5 -5 3 -12 -4 -15 -15 -38 -16 -38 -2 0 6 6 10 13 10
6 0 39 14 72 30 65 33 75 35 75 20z m175 0 c-3 -5 -16 -10 -28 -10 -18 0 -19
2 -7 10 20 13 43 13 35 0z m-533 -102 c-17 -24 -37 -50 -46 -57 -14 -12 -16
-10 -16 9 0 23 76 108 86 97 3 -3 -8 -25 -24 -49z m638 25 c0 -9 -133 -79
-169 -88 -48 -14 -14 20 58 58 68 35 111 46 111 30z m190 -18 c20 -24 5 -28
-21 -6 -19 16 -20 20 -8 21 9 0 22 -7 29 -15z m76 -12 c-7 -7 -26 7 -26 19 0
6 6 6 15 -2 9 -7 13 -15 11 -17z m-506 -3 c-20 -13 -43 -13 -35 0 3 6 16 10
28 10 18 0 19 -2 7 -10z m290 -5 c0 -10 -10 -15 -27 -15 -27 1 -27 1 -9 15 25
19 36 19 36 0z m-257 -16 c-11 -12 -26 -20 -33 -17 -17 5 16 38 38 38 14 0 13
-3 -5 -21z m-88 3 c-78 -67 -173 -109 -189 -83 -7 11 104 71 132 71 6 0 12 5
12 10 0 6 12 10 27 10 15 0 23 -4 18 -8z m418 -29 c-7 -2 -19 -2 -25 0 -7 3
-2 5 12 5 14 0 19 -2 13 -5z m-393 -13 c0 -5 -7 -10 -16 -10 -8 0 -12 5 -9 10
3 6 10 10 16 10 5 0 9 -4 9 -10z m536 -27 c13 -5 12 -8 -3 -26 -23 -26 -191
-137 -207 -137 -7 0 -30 25 -51 56 -44 63 -42 75 16 106 30 17 47 19 132 13
54 -3 105 -9 113 -12z m-278 -5 c-5 -15 -58 -24 -58 -9 0 11 17 19 43 20 11 1
17 -4 15 -11z m-60 -37 c3 -8 -1 -12 -9 -9 -7 2 -15 10 -17 17 -3 8 1 12 9 9
7 -2 15 -10 17 -17z m-46 -8 c10 -9 18 -20 18 -25 0 -15 -47 -8 -63 10 -29 32
11 46 45 15z m78 -17 c0 -2 3 -12 6 -20 5 -13 2 -15 -12 -9 -12 4 -6 -8 19
-35 20 -23 37 -45 37 -50 0 -4 -10 -13 -22 -21 -19 -12 -23 -11 -35 5 -7 10
-11 24 -9 31 3 7 -6 24 -20 38 l-25 26 23 19 c22 18 38 25 38 16z m-157 -17
c20 -5 37 -16 37 -24 0 -13 -125 -87 -170 -99 -14 -4 -51 -19 -83 -33 -35 -15
-63 -21 -68 -16 -15 15 202 183 235 183 6 0 28 -5 49 -11z m-383 -29 c0 -5 -5
-10 -11 -10 -5 0 -7 5 -4 10 3 6 8 10 11 10 2 0 4 -4 4 -10z m494 -60 c20 -22
36 -44 36 -50 0 -5 -18 -19 -39 -30 -34 -17 -56 -19 -151 -17 l-111 2 33 28
c45 38 159 106 179 107 9 0 33 -18 53 -40z m336 -9 c0 -5 -7 -12 -16 -15 -22
-9 -24 -8 -24 9 0 8 9 15 20 15 11 0 20 -4 20 -9z m-196 -47 c27 -10 18 -31
-16 -37 -42 -6 -60 9 -34 29 22 16 28 17 50 8z m-68 -45 c3 -6 0 -15 -7 -20
-22 -13 -49 -11 -49 5 0 23 43 35 56 15z m100 -8 c-7 -11 -46 -21 -46 -12 0
13 13 21 32 21 11 0 17 -4 14 -9z m134 -1 c0 -13 -48 -36 -56 -27 -4 3 -4 13
-1 22 7 17 57 21 57 5z m-657 -11 c-14 -14 -102 -25 -88 -11 9 9 34 15 85 21
10 1 11 -2 3 -10z m237 -9 c19 -12 -49 -43 -156 -70 -90 -23 -104 -24 -104 -7
0 24 86 63 170 77 65 11 73 11 90 0z m98 -22 c-4 -16 -206 -117 -233 -117 -18
-1 -18 1 5 19 33 27 198 110 217 110 8 0 13 -6 11 -12z m58 -18 c8 -8 19 -7
38 1 36 17 53 1 35 -32 -25 -48 -65 -91 -114 -122 -100 -63 -90 -62 -161 -15
-35 23 -64 46 -64 50 0 4 37 18 83 33 56 17 94 36 121 60 43 38 47 40 62 25z
m-316 -60 c0 -15 -26 -23 -41 -14 -9 5 -7 10 7 15 27 11 34 10 34 -1z m30
-115 c7 -9 10 -18 7 -22 -8 -7 -37 15 -37 28 0 14 16 11 30 -6z m-81 -11 c33
-24 11 -43 -23 -20 -28 18 -34 36 -13 36 7 0 23 -7 36 -16z m169 -27 c5 -24
-15 -21 -28 4 -10 18 -9 20 7 17 10 -2 19 -11 21 -21z m257 3 c-3 -5 -13 -10
-21 -10 -8 0 -12 5 -9 10 3 6 13 10 21 10 8 0 12 -4 9 -10z m-50 -136 c13 -5
14 -8 3 -15 -7 -5 -21 -9 -32 -9 -15 0 -16 3 -6 15 14 17 13 17 35 9z m-120
-74 c-3 -5 -15 -10 -26 -10 -10 0 -19 5 -19 10 0 6 12 10 26 10 14 0 23 -4 19
-10z m-228 -55 c-35 -31 -87 -34 -104 -5 -12 18 -9 19 45 23 31 2 64 4 72 5 9
1 4 -9 -13 -23z m-502 -29 c18 -13 17 -15 -24 -26 -46 -12 -106 -6 -130 13
-12 10 -9 13 15 18 53 12 120 9 139 -5z m588 -29 c15 -3 40 -14 55 -24 l27
-18 -43 -3 c-25 -2 -40 -7 -36 -13 3 -6 24 -7 49 -4 47 8 85 -6 85 -30 0 -9
-10 -15 -24 -15 -14 0 -28 -4 -31 -10 -16 -26 -148 14 -172 53 -4 7 -21 21
-37 31 -28 18 -29 19 -10 33 18 14 59 14 137 0z m-395 -35 c2 -6 -1 -12 -6
-12 -19 0 -82 30 -82 39 0 14 83 -12 88 -27z m288 -46 c32 -24 79 -50 104 -59
41 -14 43 -15 15 -16 -45 -2 -122 30 -166 67 -21 18 -39 38 -39 43 0 19 28 8
86 -35z m-693 19 c26 -11 73 -14 179 -14 81 1 162 -4 186 -10 59 -16 113 -73
163 -173 23 -46 55 -99 70 -118 16 -19 29 -42 29 -51 0 -18 -73 -89 -91 -89
-6 0 -38 -18 -70 -39 -33 -22 -85 -49 -117 -61 -31 -12 -64 -27 -72 -35 -29
-25 -113 -55 -153 -55 -28 0 -48 7 -64 22 -13 12 -38 27 -56 33 -20 6 -34 19
-39 35 -15 56 -28 235 -28 398 0 189 -2 184 63 157z m501 -50 c57 -69 38 -75
-22 -7 -28 33 -52 63 -52 67 0 14 40 -18 74 -60z m187 -141 c37 -66 38 -82 2
-58 -37 24 -50 40 -79 101 -53 111 8 76 77 -43z m92 80 c20 -3 40 -11 44 -17
10 -17 -91 -2 -118 17 l-24 18 30 -6 c17 -3 47 -8 68 -12z m-85 -154 c34 -15
41 -40 17 -60 -21 -18 -48 -8 -63 23 -13 27 -10 63 6 55 4 -3 22 -11 40 -18z"/>
<path d="M8055 5070 c-3 -5 -2 -10 4 -10 5 0 13 5 16 10 3 6 2 10 -4 10 -5 0
-13 -4 -16 -10z"/>
<path d="M8158 4923 c7 -3 16 -2 19 1 4 3 -2 6 -13 5 -11 0 -14 -3 -6 -6z"/>
</g>
</svg>
