<?xml version="1.0" encoding="iso-8859-1"?>
<!-- Uploaded to: SVG Repo, www.svgrepo.com, Generator: SVG Repo Mixer Tools -->
<!DOCTYPE svg PUBLIC "-//W3C//DTD SVG 1.1//EN" "http://www.w3.org/Graphics/SVG/1.1/DTD/svg11.dtd">
<svg fill="#000000" height="800px" width="800px" version="1.1" id="Capa_1" xmlns="http://www.w3.org/2000/svg" xmlns:xlink="http://www.w3.org/1999/xlink" 
	 viewBox="0 0 226.44 226.44" xml:space="preserve">
<path d="M226.44,28.408v122.041c0,30.373-23.334,55.083-52.015,55.083c-26.113,0-48.294-20.656-51.595-48.048
	c-0.446-3.701,0.712-7.417,3.177-10.196c2.445-2.758,5.961-4.339,9.646-4.339h0.242c6.489,0,12.005,4.903,12.831,11.406
	c1.761,13.878,12.81,24.343,25.699,24.343c14.306,0,25.944-12.673,25.944-28.249V28.408c0-4.143,3.358-7.5,7.5-7.5h11.071
	C223.083,20.908,226.44,24.266,226.44,28.408z M188.719,79.295v14.578c0,4.51-2.492,8.448-6.17,10.512
	c-0.421,13.894-11.46,25.063-24.97,25.063h-34.83c-2.587,0-5.121-0.576-7.442-1.644l-11.059,9.545
	c-2.984,2.574-6.624,3.87-10.27,3.87c-3.396,0-6.796-1.122-9.682-3.381l-12.169-9.52c-1.961,0.726-4.039,1.129-6.158,1.129H31.14
	c-13.509,0-24.549-11.169-24.97-25.063C2.491,102.321,0,98.383,0,93.873V79.295c0-4.505,2.486-8.44,6.158-10.506v-0.236
	c0-14.272,11.207-25.885,24.982-25.885h126.439c13.775,0,24.982,11.612,24.982,25.885v0.236
	C186.233,70.855,188.719,74.79,188.719,79.295z M107.478,84.015l19.258,21.246c0.264,0.292,0.57,0.459,0.838,0.459h30.39
	c0.629,0,1.543-0.965,1.543-2.477V69.391c0-1.512-0.914-2.477-1.543-2.477h-49.648c-0.629,0-1.543,0.965-1.543,2.477v12.604
	C106.772,82.771,107.036,83.526,107.478,84.015z M30.496,105.72h30.391c0.268,0,0.573-0.167,0.837-0.458l19.258-21.248
	c0.442-0.487,0.706-1.242,0.706-2.019V69.391c0-1.512-0.914-2.477-1.543-2.477H30.496c-0.629,0-1.543,0.965-1.543,2.477v33.853
	C28.953,104.755,29.867,105.72,30.496,105.72z M94.448,125.992l9.728-8.396l-9.295-10.451c-0.051-0.058-0.208-0.234-0.522-0.234
	s-0.471,0.177-0.523,0.235l-10.022,11.269l9.725,7.609C93.917,126.321,94.242,126.171,94.448,125.992z"/>
</svg>