<?xml version="1.0" standalone="no"?>
<!DOCTYPE svg PUBLIC "-//W3C//DTD SVG 20010904//EN"
 "http://www.w3.org/TR/2001/REC-SVG-20010904/DTD/svg10.dtd">
<svg version="1.0" xmlns="http://www.w3.org/2000/svg"
 width="1280.000000pt" height="640.000000pt" viewBox="0 0 1280.000000 640.000000"
 preserveAspectRatio="xMidYMid meet">
<metadata>
Created by potrace 1.15, written by Peter Selinger 2001-2017
</metadata>
<g transform="translate(0.000000,640.000000) scale(0.100000,-0.100000)"
fill="#000000" stroke="none">
<path d="M6324 6368 c9 -47 41 -75 136 -122 106 -53 942 -567 1185 -729 99
-66 232 -158 295 -205 129 -96 312 -243 308 -248 -2 -2 -129 3 -283 11 -154 8
-381 19 -505 25 -124 6 -310 18 -415 26 -104 8 -200 14 -212 14 -21 0 -23 5
-23 55 l0 55 -65 0 c-112 0 -257 20 -330 46 -38 14 -77 27 -86 30 -10 3 -19
-4 -27 -21 -18 -38 -83 -63 -217 -80 -65 -9 -124 -19 -132 -24 -9 -5 -16 -30
-18 -70 -6 -88 -12 -95 -82 -97 -66 -1 -84 -9 -164 -69 -53 -39 -62 -42 -140
-48 -105 -7 -218 -44 -409 -132 -219 -101 -293 -115 -700 -135 -254 -12 -314
-22 -408 -65 -41 -19 -87 -35 -101 -35 -111 1 -90 67 44 139 69 37 70 38 82
92 58 275 -82 587 -316 702 -60 29 -75 32 -156 32 -138 0 -190 -34 -306 -198
-143 -202 -157 -257 -94 -360 19 -31 51 -83 70 -114 51 -83 60 -120 46 -190
-24 -122 -103 -181 -257 -191 -87 -5 -88 -5 -152 -56 -148 -116 -147 -114
-263 -351 -111 -227 -230 -499 -292 -665 -33 -88 -42 -102 -114 -175 -84 -85
-143 -175 -262 -393 -132 -245 -196 -332 -240 -332 -51 0 -122 -28 -209 -83
-48 -30 -106 -61 -129 -68 -56 -16 -57 -42 -3 -94 52 -51 52 -74 -5 -121 -60
-51 -99 -108 -124 -182 -28 -83 -28 -83 22 -76 183 25 369 135 582 345 67 65
125 110 225 171 190 117 279 185 400 307 120 120 156 175 240 361 75 166 116
232 181 295 l51 50 -6 -71 c-12 -144 -61 -259 -200 -471 -46 -72 -98 -158
-115 -191 -30 -59 -35 -64 -273 -230 -295 -206 -532 -387 -664 -506 -106 -95
-167 -130 -321 -181 -130 -42 -222 -107 -484 -337 -185 -164 -269 -230 -373
-295 -71 -44 -79 -52 -101 -107 -33 -82 -78 -145 -190 -266 -109 -118 -146
-167 -180 -243 -29 -64 -52 -186 -37 -196 6 -3 15 -18 21 -32 8 -22 19 -28 68
-38 135 -26 282 -32 521 -22 131 6 295 11 365 11 137 0 187 12 206 48 6 12 11
25 11 30 0 12 -137 29 -340 43 -171 11 -297 33 -320 55 -13 13 -30 154 -18
154 3 0 54 9 115 20 192 34 308 79 381 145 42 37 86 112 97 162 6 31 5 33 -22
33 -16 0 -50 -15 -78 -35 -28 -19 -72 -51 -100 -70 -57 -40 -95 -44 -143 -15
-36 22 -35 40 2 40 42 0 105 28 229 104 180 109 220 116 347 62 11 -4 20 5 31
33 24 55 93 105 296 214 535 285 1138 554 1408 629 70 19 106 21 280 22 169 0
226 -4 370 -27 94 -14 244 -38 335 -52 114 -18 224 -28 358 -32 105 -3 192 -8
192 -10 0 -2 -7 -18 -16 -35 -49 -94 -82 -244 -119 -541 -28 -220 -56 -376
-87 -475 l-19 -64 26 -40 c36 -55 36 -101 -2 -160 -57 -89 -71 -266 -28 -353
19 -39 22 -40 85 -48 75 -9 577 -1 920 15 129 6 352 10 495 9 159 -1 281 3
315 10 60 12 119 39 138 62 35 42 -245 54 -515 23 -444 -50 -628 4 -871 258
-93 98 -107 119 -74 115 50 -5 68 3 114 52 29 31 48 61 48 74 0 13 -15 43 -33
67 -49 64 -50 72 -22 150 42 117 102 350 165 643 33 154 72 326 85 383 14 57
25 105 25 108 0 2 -11 4 -24 4 -30 0 -71 -32 -102 -81 -15 -24 -32 -39 -44
-39 -27 0 -25 12 6 50 53 63 0 49 -79 -20 -28 -25 -53 -40 -62 -36 -28 10 -19
26 47 80 26 21 50 46 53 57 12 37 -6 39 -49 4 -85 -69 -155 -88 -396 -105 -80
-5 -170 -13 -200 -16 l-55 -6 34 29 c24 21 32 35 30 53 -6 36 -39 36 -171 1
-62 -17 -136 -33 -163 -37 -48 -6 -114 6 -143 25 -23 14 2 40 99 109 84 59
149 128 149 159 0 33 -56 -1 -96 -59 -25 -36 -74 -68 -103 -68 -5 0 -11 12
-13 28 -2 21 -8 26 -23 24 -60 -10 -60 -9 -56 33 1 22 12 61 22 88 21 53 24
108 8 138 -9 17 -5 22 33 39 81 35 203 53 323 47 200 -10 392 -73 755 -246
165 -78 185 -86 188 -69 5 28 -41 92 -90 126 -183 125 -453 209 -803 247 -138
16 -140 16 -176 51 -42 41 -69 113 -69 183 0 63 21 155 69 308 77 248 84 284
88 463 4 180 9 205 59 296 99 181 296 264 679 289 97 7 102 8 182 56 105 64
241 127 478 224 216 88 400 177 487 236 l60 41 31 -30 c41 -39 75 -52 142 -52
49 0 57 3 105 47 28 25 70 73 92 107 22 34 54 75 70 93 l30 31 32 -19 c43 -25
58 -13 60 52 1 43 4 53 16 50 56 -15 312 -19 661 -10 660 17 905 -13 1086
-130 52 -33 133 -116 133 -135 0 -3 -16 -6 -35 -6 -22 0 -43 -8 -55 -20 -18
-18 -20 -33 -20 -148 0 -85 5 -145 15 -179 41 -139 139 -210 306 -221 l94 -7
22 -45 c12 -25 39 -97 59 -160 46 -141 67 -194 101 -243 50 -73 164 -115 235
-87 18 7 65 37 103 65 71 54 132 85 166 85 27 0 25 -38 -7 -141 -24 -81 -28
-147 -10 -190 6 -13 -1 -20 -29 -29 -51 -17 -82 -68 -101 -170 -8 -47 -17 -94
-20 -105 -2 -11 -32 -40 -66 -64 -292 -208 -347 -262 -407 -402 -44 -102 -45
-104 -207 -269 -89 -91 -176 -188 -193 -216 -70 -109 -100 -286 -101 -584 0
-259 -13 -386 -57 -582 -30 -134 -36 -184 -37 -280 l-1 -117 43 -44 c33 -34
42 -50 42 -78 0 -54 -37 -70 -174 -79 -143 -9 -160 -20 -182 -112 -7 -33 15
-46 140 -82 161 -47 286 -60 586 -60 276 -1 880 22 880 34 0 19 -36 51 -73 65
-53 20 -124 22 -378 11 l-197 -9 -8 89 c-11 129 -9 517 5 674 23 262 74 545
137 746 l25 81 82 56 c45 31 147 111 227 178 240 201 336 262 498 313 112 35
125 34 183 -18 27 -24 118 -97 201 -161 178 -137 173 -130 298 -420 98 -227
138 -298 234 -413 110 -133 143 -180 172 -241 25 -52 27 -65 26 -171 -2 -111
-1 -119 39 -230 72 -203 81 -245 76 -342 -4 -69 -1 -90 10 -100 8 -7 46 -56
84 -109 76 -107 125 -152 199 -180 66 -25 97 -24 188 7 103 35 190 41 433 31
350 -14 488 4 573 75 l39 32 -29 8 c-196 57 -522 68 -816 29 -104 -14 -151 36
-203 216 -14 48 -37 111 -50 139 -31 63 -31 79 0 129 30 49 31 73 5 118 -30
51 -34 112 -16 240 16 107 16 123 1 209 -8 51 -47 185 -85 298 -72 215 -82
256 -100 410 -14 125 -24 164 -66 279 -45 121 -139 308 -284 571 -126 226
-194 366 -264 541 -59 147 -84 248 -95 374 -17 211 13 318 159 562 84 140 85
141 105 123 11 -10 47 -23 80 -30 33 -7 67 -16 76 -21 10 -5 30 -1 55 11 59
29 143 34 303 16 190 -21 233 -20 313 8 180 64 271 192 384 538 54 164 60 177
83 180 25 3 33 14 66 90 15 33 15 43 0 125 -42 226 -67 337 -91 399 -26 69
-89 174 -108 179 -6 2 -60 8 -121 15 -121 13 -190 4 -212 -26 -35 -48 -57
-130 -57 -217 -1 -100 0 -102 79 -113 80 -11 155 -33 186 -55 60 -43 60 -43
-176 -354 -149 -194 -224 -285 -236 -285 -49 0 -230 33 -351 64 -231 60 -538
179 -659 257 -39 25 -57 45 -75 83 -36 78 -32 147 17 308 33 106 41 149 42
213 1 156 -63 286 -173 353 -71 42 -113 53 -208 53 -180 1 -346 -100 -426
-258 -71 -141 -55 -368 32 -465 30 -33 101 -88 114 -88 2 0 3 28 4 63 0 84 32
155 96 212 28 25 56 45 64 45 7 0 18 -19 25 -42 19 -71 -2 -133 -77 -239 -65
-89 -103 -160 -104 -189 0 -8 7 -27 15 -43 14 -27 13 -28 -22 -42 -19 -8 -37
-15 -39 -15 -1 0 -101 -48 -221 -106 -205 -100 -419 -184 -471 -184 -40 0 -14
-19 36 -25 69 -9 122 -24 122 -36 0 -6 -9 -22 -20 -36 -10 -13 -33 -61 -50
-106 -56 -149 -82 -207 -94 -207 -6 0 -113 103 -237 230 -142 145 -233 230
-245 230 -10 -1 -44 -9 -74 -20 -74 -26 -83 -25 -104 11 -15 26 -16 33 -5 40
23 14 80 10 154 -11 74 -21 160 -26 170 -11 3 5 -7 11 -22 13 -20 2 -34 14
-50 43 l-22 40 -73 2 c-40 2 -120 11 -178 22 -58 11 -123 22 -144 26 -29 5
-64 27 -135 87 -231 194 -450 347 -976 685 -514 330 -693 434 -898 525 l-110
48 7 -32z m3821 -365 c-4 -21 -23 -66 -42 -101 -25 -44 -36 -77 -37 -108 -1
-35 -4 -43 -16 -38 -8 4 -45 9 -82 12 l-68 4 0 51 c0 61 30 129 71 157 34 25
124 58 158 59 22 1 23 -2 16 -36z m2031 -196 c36 -18 62 -73 44 -91 -13 -13
-140 -14 -227 -2 -60 8 -61 9 -52 33 5 13 9 38 9 55 l0 31 98 -5 c62 -3 108
-11 128 -21z m-1829 -119 c11 -13 26 -34 33 -47 11 -22 10 -27 -10 -43 -12
-10 -31 -18 -41 -18 -17 0 -19 8 -19 65 0 36 4 65 8 65 5 0 18 -10 29 -22z
m-6822 -295 c-8 -34 -38 -68 -87 -99 -20 -13 -46 -33 -57 -45 -29 -31 -37 -17
-23 36 7 25 12 59 12 75 0 26 4 30 28 30 15 1 38 7 52 15 14 8 38 14 54 15 26
0 28 -2 21 -27z m269 -19 c26 -9 50 -23 53 -31 3 -8 -2 -48 -10 -88 -12 -55
-14 -82 -7 -101 6 -15 9 -28 7 -30 -7 -8 -85 20 -140 49 -72 38 -108 82 -115
142 -4 43 -3 45 29 60 45 19 124 19 183 -1z m8477 -45 l60 -60 -21 -66 c-26
-80 -61 -150 -146 -294 -69 -116 -124 -226 -124 -246 0 -19 -11 -16 -62 22
-75 55 -102 97 -106 169 -5 85 18 140 143 326 57 85 109 167 116 183 10 22 19
27 46 27 29 0 44 -10 94 -61z m-1781 -18 c5 -11 10 -53 10 -93 l0 -74 -70 -23
c-85 -27 -166 -41 -201 -34 -32 6 -29 28 8 83 26 40 30 78 8 106 -8 10 -15 23
-15 28 0 5 38 6 88 2 70 -5 92 -3 107 8 28 21 52 20 65 -3z m-4020 -86 c17 -9
30 -19 30 -24 0 -4 -46 -30 -102 -58 -99 -49 -158 -91 -158 -113 0 -17 63 -50
98 -50 l32 0 0 -91 c0 -123 -4 -129 -90 -129 -83 0 -89 9 -61 96 27 84 0 108
-71 64 -18 -11 -42 -20 -53 -20 -17 1 -14 5 15 31 97 83 93 77 87 143 -4 34
-8 70 -9 80 -2 16 13 26 77 53 89 36 158 42 205 18z m3671 -95 c11 -6 33 -35
50 -65 17 -30 34 -55 38 -55 4 0 34 10 66 22 83 30 218 30 335 -1 47 -12 91
-29 98 -38 23 -31 14 -79 -23 -128 l-36 -46 31 -26 c87 -73 103 -230 30 -285
-17 -12 -30 -28 -30 -35 0 -8 18 -48 40 -89 30 -58 40 -87 40 -123 0 -55 -9
-62 -107 -81 -87 -17 -94 -25 -58 -58 17 -15 40 -34 51 -42 30 -22 54 -61 54
-90 0 -27 -33 -52 -139 -105 -60 -30 -60 -28 24 -72 93 -48 104 -71 60 -135
-18 -27 -52 -50 -135 -92 l-110 -57 0 -40 c0 -84 -49 -146 -138 -175 -71 -22
-228 -15 -327 16 -131 41 -246 113 -286 176 l-22 36 23 48 c12 26 19 53 16 59
-11 17 10 13 24 -4 19 -23 76 -19 94 7 9 12 16 30 16 39 0 23 -38 69 -66 79
-32 13 -30 36 6 68 17 15 30 31 30 37 0 6 -15 40 -34 75 -49 92 -83 217 -116
430 -32 202 -51 298 -74 375 -8 27 -13 51 -11 53 6 6 78 -15 213 -62 135 -47
150 -47 116 2 -24 35 -65 51 -172 67 -54 8 -109 18 -121 23 -21 8 -21 8 8 54
37 58 109 95 270 138 131 35 202 64 227 91 20 22 20 22 45 9z m-6803 -97 c-2
-47 -6 -58 -22 -61 -24 -5 -36 14 -36 56 0 17 -4 32 -10 32 -5 0 -10 4 -10 9
0 10 22 18 58 20 22 1 23 -2 20 -56z m7555 -63 c23 -11 55 -20 71 -20 l29 0
-5 -70 c-6 -83 -46 -171 -95 -208 l-33 -25 -15 35 c-8 20 -25 100 -39 180 -13
79 -31 161 -40 182 l-16 39 50 -47 c28 -26 69 -56 93 -66z m295 -75 c20 -14
45 -25 54 -25 28 0 22 -12 -29 -61 -71 -67 -177 -139 -188 -127 -2 2 3 37 11
78 15 70 33 118 56 148 16 19 56 14 96 -13z m-5382 -40 c12 -68 0 -142 -32
-188 -27 -38 -34 -42 -73 -44 -121 -4 -169 -30 -283 -154 -52 -56 -90 -89 -97
-85 -6 4 -11 27 -11 52 0 38 -3 44 -21 44 -35 0 -77 -32 -101 -76 l-22 -42
-27 83 c-30 96 -58 139 -102 162 l-31 16 39 34 c87 75 228 126 527 188 95 20
175 39 177 41 2 2 15 4 27 4 19 0 24 -7 30 -35z m6050 -101 c44 -69 68 -145
60 -190 -4 -19 -22 -52 -40 -71 l-32 -35 -35 18 c-52 29 -229 26 -379 -5 -145
-31 -270 -34 -320 -7 -42 22 -80 56 -80 70 0 6 53 38 117 70 125 64 193 120
219 183 l15 36 82 -8 c45 -5 94 -9 109 -9 22 -1 28 -7 33 -32 3 -18 19 -50 35
-72 45 -63 190 -126 190 -83 0 5 -25 23 -55 40 -51 29 -87 72 -72 87 4 4 18
-1 31 -10 14 -9 35 -16 47 -16 20 0 21 4 17 55 -4 48 -3 53 10 42 9 -6 30 -35
48 -63z m-7916 6 c0 -25 -4 -30 -25 -30 -14 0 -28 7 -31 15 -10 25 4 45 31 45
21 0 25 -5 25 -30z m4898 13 c20 -17 26 -33 23 -60 -2 -22 -21 -14 -51 19 -22
24 -27 35 -18 45 14 17 22 16 46 -4z m2482 3 c0 -20 -24 -36 -65 -43 -32 -5
-37 -4 -33 13 6 34 98 62 98 30z m-7592 -87 c-41 -74 -132 -125 -276 -155 -58
-12 -79 -21 -72 -28 16 -16 113 -11 210 9 47 10 113 18 147 19 71 1 107 -18
135 -73 l17 -33 26 26 c14 14 30 26 35 26 13 0 13 -36 0 -60 -7 -13 -6 -21 4
-29 11 -10 16 -8 21 9 20 62 112 126 222 155 75 20 236 19 325 -1 l70 -16 28
31 c25 27 32 29 60 21 17 -5 50 -29 72 -55 40 -45 67 -56 86 -32 8 9 5 25 -9
57 -24 54 -20 67 25 75 71 14 144 -41 206 -154 l26 -46 -53 -67 c-84 -104
-122 -119 -204 -83 -39 18 -42 18 -95 0 -29 -10 -114 -49 -186 -87 -151 -78
-263 -132 -295 -142 -18 -6 -35 6 -97 66 -64 64 -76 81 -94 137 -18 61 -20 63
-32 42 -37 -71 73 -245 173 -272 l37 -10 -24 -32 c-13 -18 -41 -66 -61 -107
-20 -41 -52 -100 -71 -131 -19 -31 -34 -68 -34 -82 0 -32 33 -57 76 -57 l32 0
-18 -72 c-10 -40 -25 -107 -35 -148 -34 -151 -66 -223 -127 -287 -22 -22 -37
-46 -34 -52 9 -15 59 -14 74 1 9 9 12 8 12 -5 0 -30 -48 -49 -175 -70 -68 -11
-122 -24 -119 -28 3 -5 49 -22 103 -39 101 -31 151 -64 151 -101 0 -9 2 -23 5
-31 3 -7 1 -19 -4 -27 -7 -11 -36 -6 -157 27 -231 63 -331 75 -428 52 -35 -8
-42 -6 -62 15 -32 34 -77 55 -194 87 -126 35 -180 64 -206 113 -17 31 -17 37
-4 46 21 13 87 2 126 -21 33 -21 70 -25 93 -11 11 7 2 15 -35 34 -27 14 -68
30 -91 37 -49 15 -52 21 -20 51 86 83 372 106 540 43 78 -29 87 -28 161 20
l69 46 -63 0 c-34 0 -135 7 -224 16 -173 17 -348 15 -429 -6 -54 -14 -63 -11
-48 19 17 32 59 48 150 61 128 17 164 38 104 61 -21 8 -47 4 -126 -21 -55 -16
-106 -30 -114 -30 -17 0 -83 65 -83 82 0 7 14 51 30 98 17 46 30 92 30 102 0
20 34 25 45 8 9 -15 105 70 193 170 75 85 161 207 201 288 l22 44 -31 -19
c-77 -44 -191 -188 -337 -421 l-14 -23 -49 27 c-42 23 -53 25 -79 16 -29 -10
-31 -9 -31 12 0 13 -9 68 -21 122 -21 103 -28 203 -15 242 7 20 4 22 -29 22
-31 0 -38 -4 -49 -32 l-14 -31 -6 40 c-10 58 15 113 69 152 25 18 110 61 189
95 222 97 291 158 304 267 l7 54 167 5 c92 3 170 9 174 13 4 4 16 7 26 7 18 0
18 -2 -4 -41z m5777 17 c17 -25 13 -80 -7 -119 -6 -13 -2 -26 18 -52 52 -69
76 -157 82 -302 5 -132 0 -159 -19 -105 -7 21 -22 32 -58 45 -39 13 -66 36
-135 111 -86 94 -87 95 -73 123 8 15 31 79 52 141 37 112 79 182 111 182 7 0
21 -11 29 -24z m-785 -75 c0 -45 -65 -90 -111 -76 -27 9 -24 22 15 61 40 40
96 49 96 15z m131 -30 c-13 -23 -49 -44 -94 -55 -48 -11 -29 25 26 51 29 14
47 29 47 40 0 16 1 16 16 1 13 -12 14 -20 5 -37z m176 1 c55 -36 59 -52 16
-52 -29 0 -93 58 -93 85 0 18 3 17 77 -33z m1967 17 c22 -17 26 -27 21 -48
-16 -66 -74 -111 -142 -111 -24 0 -43 2 -43 5 0 28 48 120 76 144 41 37 53 38
88 10z m-2099 -105 c-11 -9 -46 -29 -79 -47 -63 -33 -82 -55 -92 -105 -10 -50
13 -40 91 38 53 53 76 70 97 70 16 0 28 -3 28 -7 0 -3 -27 -35 -60 -69 -34
-35 -70 -83 -81 -108 -16 -36 -25 -46 -44 -46 -15 0 -31 10 -41 25 -9 14 -23
25 -30 25 -22 0 -17 49 10 107 28 58 71 92 157 122 58 21 76 18 44 -5z m-175
-8 c0 -8 -15 -20 -34 -26 -19 -6 -37 -17 -40 -25 -9 -24 -26 -17 -26 10 0 16
9 29 28 39 35 19 72 20 72 2z m204 -229 c16 -12 16 -14 2 -26 -17 -15 -56 -6
-56 13 0 28 25 34 54 13z m530 -173 c21 -8 20 -43 -1 -95 -13 -33 -14 -45 -4
-61 19 -31 3 -39 -75 -37 -65 2 -74 4 -69 18 4 9 15 43 26 77 26 84 70 118
123 98z m-6681 -137 c122 -184 156 -339 102 -456 -14 -30 -47 -84 -74 -120
-74 -100 -95 -147 -95 -213 -1 -53 -3 -58 -23 -58 -12 0 -30 -11 -41 -25 -11
-14 -30 -25 -41 -25 -57 0 -146 74 -176 146 -18 44 -30 151 -21 197 6 30 9 34
33 29 35 -7 53 19 53 78 0 53 13 70 51 70 26 0 26 1 16 43 -15 67 10 135 92
251 39 55 73 107 76 117 4 11 8 19 9 19 2 0 19 -24 39 -53z m6447 -152 c0 -86
-2 -94 -17 -88 -71 25 -110 133 -61 167 12 9 35 16 50 16 l28 0 0 -95z m649
-516 c47 -17 129 -46 181 -65 89 -32 95 -35 102 -66 4 -18 5 -68 1 -111 l-6
-79 24 4 c21 3 24 9 27 55 3 50 4 52 35 57 18 3 97 14 177 26 80 11 169 27
199 35 50 16 52 17 36 35 -15 17 -15 21 -1 49 30 57 148 107 194 82 l21 -11
-20 -35 c-63 -107 -172 -171 -437 -259 -95 -32 -172 -62 -172 -66 0 -17 24
-23 79 -21 l55 2 -19 -22 c-54 -60 -184 -87 -262 -54 -19 8 -37 15 -39 15 -12
0 2 -23 46 -75 28 -33 50 -65 50 -72 0 -19 9 -16 46 17 53 46 183 103 367 161
153 49 168 55 173 79 21 105 52 140 123 140 29 0 32 -2 21 -15 -10 -12 -10
-24 0 -61 11 -38 11 -47 0 -54 -8 -5 -18 -6 -22 -4 -4 3 -8 2 -8 -3 0 -4 23
-21 51 -38 66 -39 169 -143 225 -227 112 -168 181 -360 291 -813 41 -170 89
-355 105 -409 l29 -99 -26 -59 c-47 -105 -55 -172 -54 -470 1 -250 -1 -279
-21 -348 -27 -97 -32 -122 -18 -87 14 33 32 30 36 -6 4 -37 -39 -79 -76 -75
-27 3 -27 3 -25 78 1 41 11 149 24 240 13 105 23 243 26 378 5 194 4 212 -12
212 -24 0 -55 -18 -93 -53 l-32 -31 -46 44 c-64 62 -121 140 -216 298 -44 74
-103 164 -129 199 -27 35 -49 66 -49 69 0 3 19 3 41 -1 l42 -7 -6 30 c-19 96
-90 187 -248 322 -175 148 -235 206 -285 276 -43 60 -47 62 -127 88 -155 49
-217 59 -347 60 -92 0 -140 -4 -182 -17 -82 -25 -76 -60 12 -72 128 -17 135
-22 70 -55 -57 -29 -151 -49 -267 -56 -71 -5 -103 -11 -103 -19 0 -27 31 -37
110 -36 47 1 80 -3 80 -8 0 -16 -81 -58 -135 -70 -27 -6 -104 -15 -170 -21
-133 -12 -228 -34 -247 -58 -12 -13 6 -14 158 -8 115 5 174 4 178 -3 9 -14
-20 -80 -47 -109 -12 -13 -53 -43 -92 -65 -86 -52 -141 -105 -150 -146 -9 -41
-7 -41 -220 64 -93 46 -182 86 -197 89 -26 6 -27 5 -17 -23 19 -54 83 -134
139 -172 57 -39 143 -69 199 -69 30 0 33 -2 27 -22 -33 -114 -38 -175 -43
-495 l-5 -333 -30 18 c-87 50 -143 156 -217 409 -27 92 -56 186 -65 208 l-15
40 0 -76 c-2 -183 121 -480 265 -638 29 -33 37 -49 37 -81 0 -40 -4 -48 -57
-114 -33 -42 -29 -66 11 -66 38 0 56 -14 49 -37 -5 -17 -13 -18 -88 -12 -46 4
-106 13 -133 21 -59 18 -256 97 -268 108 -5 4 -4 52 2 106 6 55 18 241 26 414
28 566 63 771 168 990 33 69 57 101 124 168 61 61 93 102 119 155 19 40 54 97
76 127 56 77 447 459 477 467 13 3 33 0 44 -6 29 -18 42 1 42 61 0 29 5 53 11
55 6 2 49 -25 95 -60 46 -35 99 -71 117 -81 31 -16 32 -16 32 4 0 37 -17 56
-105 114 -107 73 -127 97 -123 150 3 38 5 41 38 46 55 8 144 -7 239 -41z m519
-81 c-9 -25 -71 -58 -109 -58 -46 0 -57 14 -29 37 25 22 53 31 103 32 27 1 37
-3 35 -11z m-8031 -72 c48 -52 170 -216 179 -241 7 -17 -56 -45 -99 -45 -19 0
-64 9 -99 20 -34 11 -64 20 -66 20 -2 0 -2 -10 0 -22 2 -16 18 -30 54 -48 54
-26 84 -47 84 -59 0 -16 -65 -72 -128 -109 -91 -54 -128 -94 -142 -151 l-11
-46 -80 -16 c-101 -20 -139 -13 -158 26 -8 17 -18 33 -24 36 -5 4 9 31 31 60
22 30 84 133 137 229 54 96 118 206 142 244 48 74 113 156 124 156 4 0 29 -24
56 -54z m8306 -136 c-8 -32 -32 -44 -94 -50 -72 -7 -72 4 0 42 65 34 102 37
94 8z m-7636 -106 c27 -9 116 -47 198 -84 83 -37 174 -73 203 -79 29 -6 121
-11 205 -11 165 0 195 -5 264 -45 43 -26 44 -27 27 -46 -9 -11 -45 -27 -78
-37 -68 -20 -82 -45 -28 -50 19 -2 32 -9 32 -17 0 -13 -17 -26 -104 -80 l-29
-17 54 -34 c29 -19 61 -34 72 -34 16 0 17 -5 11 -47 -17 -115 -105 -223 -234
-286 -118 -58 -184 -72 -345 -72 -161 0 -247 20 -348 82 -46 28 -61 32 -72 23
-12 -10 -12 -18 6 -52 12 -24 17 -47 13 -60 -6 -20 -11 -20 -107 -14 -96 7
-197 25 -252 46 -33 12 -32 0 3 -32 29 -27 62 -40 156 -58 l60 -12 -52 -32
c-148 -94 -415 -165 -682 -182 l-112 -7 29 -24 c15 -13 45 -32 67 -42 l38 -19
-23 -15 c-49 -32 -106 -49 -243 -73 -224 -39 -269 -56 -324 -119 -40 -44 -41
-59 -4 -51 245 53 272 56 272 27 0 -20 -18 -31 -54 -31 -13 0 -65 -23 -117
-51 -242 -132 -510 -252 -604 -271 -32 -6 -89 -31 -136 -58 -44 -27 -97 -51
-116 -55 -31 -6 -39 -3 -67 28 -17 18 -38 36 -46 39 -22 7 29 86 108 166 77
77 181 159 370 291 73 51 172 126 220 167 103 87 170 124 227 124 34 0 45 5
63 29 12 17 59 47 116 75 53 26 110 59 127 74 33 27 68 93 69 127 0 15 15 26
67 45 85 32 212 116 333 221 137 119 245 197 325 235 38 19 75 34 81 34 7 0
17 23 23 50 14 64 38 110 117 229 35 52 64 99 64 104 0 13 97 1 157 -19z
m-1222 -484 c10 -15 -14 -49 -48 -70 -36 -22 -52 -25 -41 -9 4 7 1 10 -7 7 -8
-3 -42 -46 -75 -97 -89 -134 -133 -176 -200 -191 -28 -7 -34 -5 -34 9 0 22 27
60 65 91 16 13 47 41 68 62 37 36 39 40 32 86 -8 63 9 78 109 96 42 7 79 16
83 20 10 9 41 7 48 -4z m3162 -587 c-2 -22 2 -27 17 -25 32 6 14 -56 -38 -132
-49 -72 -54 -86 -32 -86 32 0 49 15 68 59 20 44 21 45 28 21 14 -45 10 -181
-7 -254 -11 -45 -46 -128 -97 -226 -44 -85 -95 -184 -113 -220 -18 -36 -40
-95 -49 -132 -17 -67 -18 -68 -49 -68 -18 0 -49 -7 -68 -15 -53 -22 -62 -19
-83 27 -28 62 -25 230 5 312 26 73 61 133 95 165 24 23 35 51 19 51 -4 0 -19
-12 -35 -27 -24 -23 -29 -24 -44 -12 -14 11 -16 30 -12 121 4 99 7 113 42 183
45 90 109 157 220 231 94 62 136 70 133 27z m171 6 c1 -9 -11 -32 -27 -53 -25
-32 -32 -35 -37 -21 -4 10 2 28 15 45 11 16 21 34 21 40 0 17 24 6 28 -11z
m-4613 -930 c14 -44 71 -92 164 -139 113 -57 158 -91 146 -110 -12 -19 -158
-7 -226 19 -102 39 -178 127 -179 207 0 39 5 44 51 44 29 0 39 -5 44 -21z
m-86 -207 c60 -45 66 -109 11 -137 -38 -20 -178 -20 -226 0 l-35 14 16 38 c21
50 42 72 90 95 48 22 106 18 144 -10z m4414 -2 c41 -12 47 -31 22 -66 -37 -54
-156 -70 -279 -38 -63 16 -136 51 -136 66 0 12 47 40 83 49 42 11 261 3 310
-11z m-241 -180 c16 0 42 7 58 15 29 15 30 15 30 -6 0 -14 10 -24 30 -32 44
-17 41 -52 -6 -67 -20 -7 -54 -23 -77 -36 -45 -25 -99 -31 -143 -14 -26 10
-26 12 -20 72 4 34 12 70 17 80 9 17 12 17 46 3 19 -8 49 -15 65 -15z m-4238
-46 c7 -19 -3 -35 -57 -87 -22 -20 -37 -40 -34 -43 3 -4 21 -10 39 -14 l33 -7
-30 -12 c-38 -16 -104 -9 -178 20 -67 26 -77 40 -53 79 9 16 16 40 16 54 l0
26 129 0 c110 0 130 -2 135 -16z m8246 -29 c20 -24 2 -53 -68 -111 l-67 -56
-89 4 c-82 4 -91 6 -112 32 -13 15 -24 31 -24 35 0 4 35 11 78 14 91 7 147 25
205 66 48 34 60 37 77 16z m-3659 -156 c68 -38 159 -87 201 -107 43 -20 78
-40 78 -43 0 -13 -127 -29 -226 -29 -54 0 -175 11 -269 25 -93 14 -209 28
-257 32 l-88 6 0 76 0 76 173 1 c131 0 183 4 217 16 25 9 45 16 46 17 0 1 57
-31 125 -70z m6679 51 c25 -15 -7 -38 -69 -50 -30 -6 -63 -17 -73 -26 -16 -16
-18 -15 -24 1 -10 24 6 47 47 67 37 20 95 23 119 8z m15 -136 c25 -25 43 -49
40 -54 -16 -26 -161 -13 -172 15 -7 19 48 85 70 85 10 0 38 -21 62 -46z"/>
<path d="M3835 3721 c-130 -48 -243 -101 -300 -141 l-30 -21 40 7 c225 36 445
129 445 188 0 23 -10 21 -155 -33z"/>
<path d="M3540 3439 c-39 -7 -61 -16 -77 -35 -25 -28 -27 -33 -14 -52 6 -10
22 -11 60 -6 65 8 101 35 101 75 0 16 -3 28 -7 28 -5 -1 -33 -5 -63 -10z"/>
</g>
</svg>
