<?xml version="1.0" standalone="no"?>
<!DOCTYPE svg PUBLIC "-//W3C//DTD SVG 20010904//EN"
 "http://www.w3.org/TR/2001/REC-SVG-20010904/DTD/svg10.dtd">
<svg version="1.0" xmlns="http://www.w3.org/2000/svg"
 width="1280.000000pt" height="645.000000pt" viewBox="0 0 1280.000000 645.000000"
 preserveAspectRatio="xMidYMid meet">
<metadata>
Created by potrace 1.15, written by Peter Selinger 2001-2017
</metadata>
<g transform="translate(0.000000,645.000000) scale(0.100000,-0.100000)"
fill="#000000" stroke="none">
<path d="M1990 6440 c-256 -55 -375 -338 -289 -690 l22 -88 -24 -47 c-28 -57
-73 -96 -154 -134 -33 -16 -103 -49 -155 -74 -52 -25 -108 -60 -125 -77 l-30
-33 59 6 c114 11 282 115 435 271 56 56 78 73 90 67 9 -5 59 -12 111 -15 54
-5 105 -14 118 -22 51 -33 5 -111 -79 -135 -54 -15 -164 -15 -203 0 -37 15
-44 7 -20 -20 31 -35 62 -41 234 -49 91 -4 173 -10 183 -15 14 -6 17 -2 17 24
0 40 27 66 88 85 97 28 105 36 136 131 51 156 45 362 -14 500 -18 41 -22 45
-55 45 -62 0 -95 25 -95 73 0 33 4 33 55 2 51 -32 75 -32 75 -2 0 40 -50 126
-95 162 -41 35 -46 36 -141 40 -55 2 -119 0 -144 -5z"/>
<path d="M237 6389 c-115 -76 -160 -296 -93 -460 14 -35 24 -64 23 -65 -1 -1
-24 -13 -50 -27 l-48 -25 -5 -84 c-2 -45 -16 -175 -30 -288 -13 -113 -27 -259
-31 -325 -10 -217 34 -371 137 -475 44 -43 56 -49 107 -57 94 -13 359 -8 448
10 204 39 356 66 417 72 l67 6 44 -88 c57 -116 83 -183 103 -268 18 -80 20
-218 4 -289 -6 -27 -9 -50 -8 -51 2 -2 50 8 108 22 238 56 606 39 847 -38 62
-20 62 -21 47 -43 -17 -27 -11 -48 35 -121 31 -48 41 -113 23 -142 -11 -17
-152 -33 -357 -40 -271 -8 -509 17 -719 78 -55 16 -101 27 -102 26 -1 -1 -30
-103 -64 -227 -187 -678 -339 -1117 -486 -1412 -41 -82 -44 -93 -44 -169 l0
-81 -55 -60 c-72 -77 -133 -203 -185 -383 -22 -77 -78 -255 -125 -395 -112
-337 -128 -406 -129 -550 -1 -113 10 -183 42 -264 l15 -38 86 7 c47 3 199 20
336 37 205 24 309 31 580 38 244 5 344 11 383 22 89 25 82 34 -30 41 -57 4
-206 18 -333 33 -126 14 -322 29 -434 32 l-203 7 -15 43 c-14 42 -13 45 33
170 66 182 126 300 192 378 44 53 62 84 75 132 23 83 62 159 162 317 45 72
124 198 175 280 136 222 183 282 230 295 46 12 64 40 184 277 85 165 147 246
236 303 l50 32 57 -43 c176 -136 524 -487 876 -886 20 -22 20 -23 -17 -145
-65 -220 -99 -438 -117 -738 -9 -169 -14 -204 -36 -260 -41 -103 -57 -220 -44
-309 7 -42 19 -91 29 -111 16 -34 19 -35 102 -48 92 -14 323 -11 645 8 165 10
318 4 368 -15 7 -3 23 8 35 24 31 42 74 51 245 51 109 0 157 4 184 15 34 14
62 40 63 58 0 4 -186 6 -413 5 -400 -3 -414 -2 -490 19 -96 28 -184 73 -228
119 l-33 34 23 101 c12 55 65 231 117 390 151 465 176 593 166 864 -3 68 -3
69 -16 39 -8 -17 -39 -53 -69 -79 -47 -40 -87 -95 -87 -119 0 -3 9 -6 20 -6
27 0 63 -38 57 -58 -23 -72 -185 -450 -218 -508 -57 -100 -88 -135 -180 -205
-87 -66 -124 -113 -135 -172 l-7 -39 62 32 c78 39 151 112 271 273 118 157
124 146 46 -85 l-55 -163 -58 -48 c-72 -58 -83 -73 -83 -110 0 -24 3 -27 14
-18 17 15 26 -5 26 -59 l0 -37 -57 -11 c-149 -29 -220 -24 -257 17 -14 16 -16
25 -7 58 6 21 20 112 31 203 25 200 41 266 85 348 l34 64 -26 46 c-33 62 -28
129 23 282 22 70 38 136 38 167 1 29 3 53 5 53 2 0 35 -8 73 -17 l71 -17 20
25 19 24 -22 3 c-12 2 -27 -1 -33 -7 -19 -19 -27 -12 -27 24 0 44 35 83 114
127 62 34 82 58 48 58 -10 0 -61 -9 -112 -19 -189 -40 -281 11 -477 268 -126
163 -194 235 -324 337 -118 93 -202 178 -217 223 -10 28 -9 30 36 49 26 11 91
29 144 41 111 25 161 54 166 94 l3 27 -29 -29 c-27 -27 -85 -51 -124 -51 -27
0 -68 22 -68 37 0 7 11 19 25 25 46 21 26 28 -77 28 -81 0 -112 5 -147 20 -52
24 -51 24 -51 5 0 -8 -4 -15 -10 -15 -5 0 -10 9 -10 20 0 15 -7 20 -24 20 -34
0 -40 -14 -21 -49 18 -36 20 -64 3 -59 -7 3 -31 28 -53 58 -31 41 -41 49 -43
34 -7 -45 -13 -64 -21 -64 -5 0 -23 23 -41 50 -33 51 -50 63 -50 33 0 -9 18
-33 40 -53 23 -21 40 -46 40 -58 0 -12 -3 -22 -6 -22 -4 0 -40 32 -80 70 -51
48 -82 70 -99 70 -23 0 -24 -2 -13 -20 21 -33 -3 -45 -43 -21 -35 21 -73 26
-128 15 -41 -9 -41 -32 4 -137 19 -45 35 -91 37 -101 3 -22 -19 -30 -103 -41
-26 -3 -55 -12 -65 -20 -18 -13 -17 -14 11 -15 29 -1 29 -2 -13 -21 -51 -22
-48 -35 11 -44 56 -9 117 15 117 44 0 18 6 21 45 21 33 0 47 -5 52 -17 9 -22
-31 -53 -71 -53 -35 0 -80 -20 -77 -35 1 -5 23 -10 49 -10 40 0 47 -3 50 -21
3 -20 -4 -23 -85 -34 -48 -7 -108 -19 -133 -27 -49 -17 -100 -49 -100 -64 0
-5 45 -9 100 -9 88 0 102 -2 121 -21 27 -27 21 -32 -19 -17 -35 13 -107 3
-175 -26 -29 -12 -37 -20 -37 -41 0 -65 -65 -155 -126 -175 -27 -9 -40 -8 -70
6 -20 9 -38 23 -41 31 -8 20 13 172 42 298 51 224 144 480 284 785 l72 155 2
120 c4 146 23 201 80 228 45 22 46 22 101 -9 107 -60 244 -77 518 -64 297 14
414 -7 499 -89 27 -26 49 -53 49 -59 0 -6 -19 -21 -42 -33 -114 -57 -236 -167
-278 -249 -12 -24 -25 -70 -28 -103 l-5 -59 29 18 c16 10 68 49 115 86 114 89
176 118 257 118 62 0 62 0 62 -29 0 -44 33 -77 89 -91 45 -11 50 -14 56 -48 5
-27 24 -53 74 -102 126 -121 200 -234 377 -566 201 -378 310 -544 225 -344
-102 240 -200 432 -402 780 -81 140 -95 158 -135 179 -112 60 -237 243 -269
397 -12 59 -20 74 -55 106 -68 63 -69 70 -43 295 50 433 106 851 116 859 1 1
44 11 94 23 108 24 288 50 603 86 124 15 272 35 330 46 106 20 240 56 240 64
0 3 -26 2 -59 -1 -77 -8 -89 7 -38 51 78 67 238 129 438 169 l124 25 34 -35
c57 -59 104 -77 207 -82 112 -5 219 19 338 77 l81 39 70 -32 c39 -18 81 -42
95 -54 l25 -20 -28 -11 c-65 -25 -171 -33 -482 -36 l-330 -4 -100 -31 c-92
-29 -107 -31 -191 -25 -87 7 -92 6 -120 -18 -16 -14 -26 -28 -22 -32 4 -4 85
0 180 9 157 14 565 46 1026 79 l174 13 13 -26 c23 -45 97 -109 202 -176 l103
-66 112 -1 c129 -2 155 -12 282 -106 38 -28 84 -61 103 -72 l34 -21 49 21 c28
12 56 18 67 14 10 -4 63 -34 118 -66 55 -33 224 -124 375 -204 528 -279 676
-365 871 -509 l86 -64 7 -73 c11 -110 61 -349 100 -479 46 -151 84 -245 157
-391 l59 -118 -29 -43 c-72 -104 -143 -147 -366 -221 -415 -138 -714 -296
-922 -488 l-45 -42 7 -90 c18 -252 104 -461 333 -820 146 -227 152 -240 152
-317 l0 -71 55 -52 c60 -58 60 -58 45 -86 -12 -22 -14 -22 65 -9 99 15 317 28
365 21 l45 -7 -41 -26 c-112 -72 -307 -155 -387 -164 -30 -3 -93 1 -149 10
-119 19 -162 20 -177 3 -15 -19 31 -61 89 -83 39 -14 92 -16 390 -15 364 2
1110 16 1418 27 201 8 207 11 110 60 -122 62 -257 73 -573 48 -126 -10 -302
-19 -390 -19 l-160 0 -165 410 c-160 397 -273 645 -358 789 -23 39 -40 72 -38
74 10 9 195 55 331 81 119 24 474 81 500 81 3 0 5 36 5 80 l0 81 -37 -8 c-38
-8 -86 -9 -265 -4 -75 2 -104 -1 -130 -15 l-33 -17 25 -10 c77 -29 101 -42
121 -63 l21 -23 -33 -20 c-66 -41 -114 -40 -266 4 -115 34 -138 32 -227 -15
-97 -52 -169 -57 -238 -16 -25 14 -59 26 -76 26 -31 0 -32 -2 -32 -40 0 -52
18 -87 69 -133 58 -53 156 -98 262 -121 28 -6 24 3 121 -251 46 -121 118 -373
118 -414 0 -12 -14 -24 -45 -35 -25 -10 -79 -40 -121 -68 -42 -27 -80 -46 -83
-41 -47 69 -177 280 -242 393 -126 220 -220 421 -315 674 -33 89 -33 89 -14
116 81 114 365 317 627 448 234 118 520 212 643 212 52 0 145 -30 200 -65 78
-50 195 -172 349 -368 12 -15 11 -27 -4 -83 -31 -117 13 -145 130 -84 58 31
74 31 140 8 60 -22 295 -144 495 -256 223 -126 371 -197 511 -242 82 -27 95
-35 141 -86 71 -77 146 -125 338 -216 253 -119 253 -119 306 -199 56 -84 141
-170 294 -298 145 -120 242 -213 287 -273 31 -43 39 -48 73 -48 55 0 149 -23
286 -71 175 -61 248 -79 356 -86 l96 -6 41 35 c66 57 145 73 441 93 164 11
267 43 318 98 l23 25 -68 13 c-52 11 -152 13 -420 11 l-351 -2 -89 71 c-48 39
-97 76 -108 81 -11 5 -35 37 -53 72 -45 86 -86 133 -206 229 -55 44 -185 161
-288 259 -104 97 -217 198 -252 223 -36 25 -133 77 -217 116 -176 81 -218 107
-354 216 -202 161 -417 372 -767 753 -301 327 -459 557 -543 792 -28 80 -33
88 -39 64 -4 -15 -27 -49 -51 -75 -25 -27 -45 -54 -45 -61 0 -8 -6 -10 -17 -5
-10 4 -30 11 -45 17 -32 11 -41 30 -29 62 7 16 30 32 83 53 52 21 79 38 94 61
l22 32 40 -44 c49 -53 84 -121 151 -289 75 -190 96 -218 257 -339 119 -90 171
-147 187 -205 10 -38 15 -43 66 -62 87 -32 150 -86 189 -161 33 -63 35 -65 85
-77 29 -6 94 -28 144 -47 124 -48 214 -69 268 -60 38 5 45 10 50 34 10 46 -15
109 -65 164 -65 71 -74 89 -60 131 6 18 18 39 26 46 13 10 12 14 -3 31 -44 49
-116 59 -253 37 -37 -7 -83 -9 -102 -5 -33 6 -36 11 -68 94 -45 121 -169 362
-300 587 -166 283 -253 446 -310 579 -61 143 -80 210 -80 291 -1 84 -27 135
-114 221 -94 92 -136 114 -217 114 -107 0 -196 62 -283 198 -44 68 -96 175
-96 196 0 6 20 30 45 54 178 172 128 491 -97 613 -61 33 -66 34 -173 34 -91
-1 -119 -4 -165 -23 -50 -21 -63 -34 -141 -140 -183 -247 -203 -313 -158 -515
21 -96 20 -143 -5 -183 l-16 -23 -127 44 c-142 50 -209 56 -289 29 -32 -11
-62 -14 -93 -9 -74 11 -234 67 -421 150 -313 138 -430 176 -579 191 -68 6 -75
9 -90 37 -35 63 -44 70 -116 78 -78 10 -178 53 -275 119 -87 59 -179 100 -253
113 -61 10 -66 9 -98 -14 -19 -13 -92 -56 -163 -96 l-129 -71 -109 56 c-111
58 -121 69 -98 111 22 42 -79 117 -215 160 -94 30 -457 101 -519 101 -48 0
-260 -56 -496 -130 -480 -151 -617 -180 -875 -187 l-189 -5 49 -25 c48 -25 51
-25 137 -13 l89 12 34 -27 c20 -14 76 -64 126 -111 50 -46 113 -96 141 -110
l50 -25 -7 23 c-4 13 -21 46 -37 73 -51 82 -61 106 -66 157 l-5 48 67 0 c73 0
156 -24 207 -61 l31 -22 -7 24 c-4 13 -13 34 -21 46 -35 56 -4 93 80 93 53 0
56 -1 46 -19 -21 -40 -11 -120 26 -213 l36 -90 -34 -35 c-18 -20 -55 -46 -83
-59 -89 -42 -157 -31 -422 65 -148 53 -199 60 -236 31 -16 -13 -42 -50 -58
-83 -28 -58 -64 -107 -79 -107 -4 0 -10 37 -13 83 -7 94 -41 207 -63 207 -29
0 -71 -29 -83 -57 -6 -16 -15 -51 -20 -80 -20 -126 -80 -137 -154 -29 -19 28
-37 34 -37 13 0 -8 -9 -44 -21 -81 -16 -50 -19 -79 -14 -114 4 -26 8 -48 8
-50 1 -2 -29 -16 -68 -31 -91 -36 -168 -81 -139 -81 11 0 28 -6 38 -13 16 -12
9 -18 -71 -54 -163 -76 -315 -103 -588 -103 l-160 0 -26 33 c-14 17 -28 37
-32 43 -4 6 0 49 8 95 26 147 18 280 -22 388 -14 38 -18 41 -29 27 -6 -9 -15
-42 -19 -73 -7 -55 -37 -103 -66 -103 -12 0 -12 2 11 150 17 108 9 153 -35
197 -40 40 -48 41 -71 6 -15 -22 -19 -52 -22 -145 l-4 -118 -27 0 c-48 0 -105
22 -163 61 l-58 39 0 -60 c0 -65 -21 -120 -45 -120 -7 0 -16 9 -20 20 -10 33
-63 70 -101 70 -18 0 -81 -18 -139 -40 -58 -22 -121 -40 -140 -40 -39 0 -69
24 -86 67 -8 22 -6 30 13 51 33 34 134 105 196 136 l54 27 61 -40 c39 -27 71
-41 92 -41 31 0 33 2 40 45 10 67 48 105 152 151 85 37 167 83 160 90 -2 2
-47 -12 -100 -31 -110 -39 -259 -71 -392 -84 -49 -4 -91 -8 -92 -7 -1 1 -6 63
-12 139 -6 75 -27 253 -46 395 -34 258 -59 492 -53 496 2 1 15 10 30 19 35 22
58 56 68 104 10 44 0 60 -69 105 -63 39 -122 39 -184 -3z m18 -61 c-1 -17 -9
-24 -28 -26 -23 -3 -27 0 -27 22 0 22 5 26 28 26 24 0 28 -4 27 -22z m-71
-184 c17 -17 23 -114 7 -114 -24 0 -41 34 -41 81 0 51 8 59 34 33z m94 -106
c11 -35 23 -87 27 -115 6 -49 5 -53 -14 -53 -11 0 -33 11 -48 24 -24 21 -28
31 -28 78 1 47 25 128 39 128 3 0 14 -28 24 -62z m55 -239 c63 -13 59 -7 86
-129 26 -113 6 -207 -79 -372 -34 -66 -56 -120 -50 -123 5 -3 25 -2 45 4 40
11 71 5 79 -14 3 -8 -8 -40 -25 -73 -22 -44 -55 -83 -133 -155 -57 -54 -106
-97 -109 -97 -10 0 -48 69 -63 116 -24 76 -29 294 -10 443 15 112 60 367 71
399 6 16 111 16 188 1z m4446 -430 c17 -6 31 -18 31 -26 0 -8 -33 -47 -74 -86
-41 -40 -83 -91 -95 -113 -17 -35 -27 -43 -65 -53 -25 -6 -72 -11 -106 -11
l-60 0 54 78 c61 88 91 143 101 190 l7 32 87 0 c49 0 102 -5 120 -11z m-684
-33 c33 -9 40 -16 40 -36 0 -23 -5 -25 -55 -30 -50 -5 -53 -6 -33 -17 12 -7
35 -13 52 -13 38 0 39 -12 5 -35 -43 -28 -124 -40 -190 -28 -72 13 -80 10 -94
-32 -10 -30 -27 -45 -50 -45 -13 0 -40 103 -40 152 l0 45 103 26 c110 28 199
32 262 13z m4201 -95 c23 -10 44 -23 48 -29 3 -5 -12 -44 -34 -87 -50 -97 -52
-138 -10 -160 16 -8 36 -15 44 -15 8 0 17 -4 20 -8 3 -5 -38 -62 -90 -128 -52
-65 -106 -143 -121 -171 l-25 -53 -95 0 c-85 0 -94 2 -89 18 18 58 36 140 36
163 0 33 -32 75 -65 83 -14 4 -25 11 -25 17 0 35 61 106 100 114 15 3 45 2 68
-3 36 -9 42 -7 47 9 8 24 -9 55 -51 95 -42 39 -43 64 -2 105 67 67 164 86 244
50z m-2579 -77 c15 -11 33 -35 41 -54 12 -30 12 -32 -5 -25 -10 5 -48 10 -84
13 -59 4 -76 0 -155 -32 -49 -20 -92 -36 -96 -36 -15 0 -8 45 12 78 32 52 109
84 192 80 49 -3 75 -9 95 -24z m-42 -276 c59 -39 34 -75 -31 -45 -35 17 -42
35 -22 55 15 15 12 16 53 -10z m2776 -4 c22 -59 -35 -134 -103 -134 -53 0 -45
71 9 85 43 10 73 33 73 55 0 28 9 25 21 -6z m-1923 -75 c145 -37 279 -121 384
-241 61 -69 319 -430 312 -437 -2 -2 -29 13 -59 34 -64 43 -136 120 -208 218
-45 61 -52 66 -65 53 -14 -13 -13 -19 10 -53 47 -72 47 -105 -1 -77 -28 16
-48 43 -96 128 -23 41 -30 47 -39 34 -22 -30 -56 -38 -161 -38 l-107 0 -67 72
c-123 132 -174 210 -196 300 -6 22 -3 27 17 31 42 9 201 -5 276 -24z m1892
-141 c-1 -2 -9 -38 -19 -80 l-18 -78 26 0 c15 0 32 5 38 11 8 8 14 -4 23 -44
9 -45 8 -61 -4 -91 -8 -20 -20 -36 -25 -36 -6 0 -11 -7 -11 -15 0 -10 10 -15
33 -15 44 0 61 -13 52 -39 -5 -18 -2 -21 22 -21 16 0 38 7 49 15 24 18 94 21
76 3 -7 -7 -12 -26 -12 -43 0 -42 16 -55 67 -55 l43 0 0 -42 c0 -64 -16 -110
-55 -159 -32 -40 -33 -45 -18 -61 9 -10 23 -18 32 -18 9 0 27 -7 40 -16 21
-15 23 -22 18 -69 -6 -64 -26 -103 -73 -149 -42 -41 -40 -68 9 -92 53 -27 67
-44 67 -83 0 -20 -10 -57 -22 -81 -23 -46 -26 -47 -188 -139 -53 -31 -59 -36
-46 -50 22 -21 63 -18 142 13 91 36 118 33 122 -13 2 -19 1 -44 -2 -57 -10
-37 -74 -92 -177 -149 -108 -61 -131 -81 -108 -96 28 -18 75 -8 153 31 44 22
93 40 111 40 48 0 77 -28 77 -73 0 -45 -13 -62 -65 -88 -21 -11 -72 -51 -113
-90 -41 -38 -79 -69 -85 -69 -20 0 -7 -19 20 -28 53 -19 126 9 183 70 27 29
27 29 38 8 43 -80 -145 -206 -357 -240 -87 -14 -143 -7 -275 38 -99 33 -108
38 -108 62 0 50 -21 99 -70 161 -28 35 -67 88 -87 118 l-37 53 -1 117 -1 116
-52 129 c-55 133 -82 227 -82 285 0 32 1 33 33 27 17 -3 55 -21 82 -40 49 -33
95 -51 95 -37 0 14 -55 60 -131 109 -75 49 -109 85 -128 134 -8 21 -18 26 -61
31 -28 3 -77 18 -108 32 -73 33 -296 179 -282 183 40 14 247 -77 339 -148 l54
-42 -41 76 c-77 143 -206 296 -250 296 -10 0 -23 -5 -30 -12 -8 -8 -34 12
-106 85 -109 111 -156 192 -156 266 0 62 14 84 30 49 12 -25 15 -26 99 -25 77
2 91 -1 132 -25 61 -36 99 -79 199 -231 73 -111 85 -125 88 -102 4 34 -54 159
-98 208 -25 28 -31 43 -26 62 10 40 48 59 108 52 67 -8 178 -46 184 -62 3 -7
-8 -39 -25 -70 -37 -69 -38 -85 -8 -85 36 0 68 29 92 84 33 74 46 83 84 55 27
-20 35 -21 89 -12 l60 9 4 -72 c4 -78 18 -109 71 -148 20 -15 47 -21 113 -24
110 -6 106 10 -8 35 -44 9 -90 24 -101 33 -18 15 -19 21 -10 59 20 79 77 136
161 161 19 6 22 9 8 9 -30 1 -56 31 -56 62 0 51 88 128 148 129 12 0 22 -1 22
-2z m-6160 -277 c0 -5 -14 -21 -31 -35 -26 -22 -39 -26 -92 -25 -34 1 -75 4
-92 8 l-30 6 23 20 c12 11 32 23 45 27 34 10 177 9 177 -1z m4567 -116 c64
-29 183 -105 183 -118 0 -21 -90 7 -165 50 -44 26 -97 56 -117 66 -21 11 -35
23 -32 29 9 13 65 2 131 -27z m-4832 0 c65 -8 139 -15 162 -15 24 0 43 -4 43
-8 0 -17 -99 -63 -176 -82 -158 -41 -469 -64 -572 -44 -27 6 -29 9 -22 33 38
133 187 164 565 116z m6855 -31 c71 -16 167 -56 219 -90 l34 -23 2 -103 c1
-57 5 -162 10 -234 4 -72 5 -147 1 -168 l-7 -38 -24 22 c-32 30 -52 94 -66
210 -11 98 -39 190 -63 210 -18 14 -20 10 -41 -78 -18 -72 -48 -132 -72 -139
-16 -6 -31 76 -43 232 -5 72 -16 150 -24 173 -18 49 -19 48 74 26z m484 -653
c12 -14 16 -32 14 -67 l-3 -49 -22 35 c-22 34 -32 100 -15 100 5 0 17 -9 26
-19z m136 -372 c0 -6 27 -38 60 -70 57 -55 67 -79 36 -79 -7 0 -23 11 -36 25
-13 14 -29 25 -36 25 -20 0 -27 -74 -19 -214 6 -126 -1 -186 -23 -186 -5 0
-35 17 -65 37 l-57 37 34 28 c69 57 79 130 34 266 -19 61 -21 63 -42 49 -11
-8 -22 -26 -24 -41 -2 -14 -7 -26 -11 -26 -20 0 -62 45 -80 86 -11 24 -26 44
-33 44 -8 0 -5 5 5 11 13 8 31 8 62 0 60 -15 125 -13 155 4 31 17 40 18 40 4z
m-60 -249 c0 -24 -31 -90 -42 -90 -4 0 -14 16 -22 35 -8 19 -23 38 -32 42 -15
6 -15 7 2 20 10 7 35 13 56 13 31 0 38 -4 38 -20z m178 -126 c4 -69 -13 -182
-27 -169 -3 4 -6 71 -6 150 0 130 1 141 14 117 8 -15 16 -59 19 -98z m-534
-100 c142 -71 225 -194 197 -291 l-9 -31 51 -4 c32 -3 60 0 74 8 19 12 29 8
109 -49 171 -122 380 -346 469 -503 21 -38 48 -63 119 -111 51 -34 122 -90
159 -123 71 -65 174 -196 195 -246 12 -27 20 -32 74 -42 82 -15 162 -55 293
-144 95 -64 202 -118 235 -118 5 0 17 -17 25 -38 9 -20 38 -59 64 -87 63 -64
77 -91 60 -112 -10 -11 -24 -14 -56 -9 -48 6 -73 0 -73 -18 0 -37 133 -57 209
-32 27 9 52 16 54 16 2 0 31 -36 65 -79 34 -44 82 -96 107 -116 53 -44 58 -74
20 -110 -38 -35 -16 -38 34 -4 45 30 58 33 85 23 12 -5 13 -10 3 -31 -12 -28
-3 -40 62 -75 36 -20 51 -51 41 -88 -6 -22 -12 -25 -63 -28 -70 -4 -85 14 -66
78 23 78 -10 66 -133 -45 -51 -47 -107 -90 -126 -96 -33 -11 -102 -5 -102 9 0
4 16 18 35 30 40 28 129 115 158 156 19 27 19 28 1 18 -10 -6 -46 -34 -79 -62
-33 -29 -80 -61 -104 -72 l-43 -20 -27 25 c-14 13 -88 70 -163 126 -141 105
-235 197 -276 270 l-23 41 23 0 c56 0 153 -36 293 -110 83 -43 174 -85 204
-94 60 -18 121 -21 121 -7 0 11 -76 68 -148 110 -77 45 -211 100 -440 180
-207 72 -359 134 -422 172 -32 20 -33 22 -15 35 29 21 97 17 178 -11 81 -29
197 -45 197 -27 0 21 -75 62 -155 87 -44 13 -134 33 -200 45 -187 33 -315 70
-315 91 0 5 11 11 25 15 25 6 25 6 -14 35 -146 105 -423 236 -688 323 -61 20
-80 31 -76 42 7 18 41 18 73 -1 29 -17 50 -19 50 -5 0 15 -51 37 -102 45 -26
4 -53 12 -61 19 -17 14 -40 107 -31 129 4 11 1 17 -8 17 -8 0 -42 11 -76 25
-74 30 -98 31 -105 6 -6 -24 -52 -49 -108 -57 -41 -6 -43 -5 -24 9 27 21 13
44 -51 80 l-49 28 38 -6 c22 -3 37 -2 37 4 0 6 16 21 36 35 32 22 34 25 18 34
-16 9 -13 11 17 17 24 4 71 -2 140 -18 129 -31 205 -40 244 -29 l30 9 -34 17
c-65 34 -147 57 -346 97 -109 22 -201 42 -204 45 -10 10 24 24 58 24 19 0 77
-12 128 -27 51 -15 96 -24 99 -20 12 12 -17 84 -48 121 -56 68 -165 111 -380
152 -54 10 -98 21 -98 24 0 7 121 75 250 141 88 45 220 160 220 193 0 21 3 21
64 -10z m-7429 -104 c39 -5 40 -6 43 -47 4 -56 -39 -107 -111 -128 -28 -8 -56
-15 -63 -15 -7 0 2 25 22 63 18 34 36 81 40 104 4 28 10 40 18 36 6 -4 29 -10
51 -13z m6549 -189 c31 -17 84 -50 118 -74 58 -41 124 -77 172 -92 15 -4 17
-8 8 -17 -17 -17 -15 -84 4 -102 18 -19 59 -30 73 -21 6 3 11 2 11 -3 0 -14
-40 -38 -76 -45 -28 -5 -31 -3 -44 31 -22 62 -106 133 -232 197 -143 72 -210
114 -202 127 9 14 45 27 80 27 18 1 57 -12 88 -28z m2066 -100 c25 -4 38 -10
30 -13 -135 -45 -180 -58 -207 -58 -32 0 -33 -1 -33 -41 0 -52 -17 -42 -26 17
-5 36 -3 49 11 65 33 35 122 47 225 30z m-1538 -110 c17 -11 36 -17 41 -14 7
4 7 -1 2 -13 -4 -10 -10 -30 -13 -42 -4 -18 -10 -23 -26 -18 -11 2 -36 9 -54
13 l-34 8 21 19 c11 10 18 23 15 28 -6 9 2 38 10 38 3 0 20 -9 38 -19z m-7250
-79 c-23 -60 -100 -203 -137 -252 -55 -76 -151 -162 -213 -192 -50 -25 -80
-32 -143 -36 l-79 -5 0 30 c0 23 -14 43 -71 97 -73 70 -89 97 -89 146 0 38 16
42 81 19 30 -11 64 -18 77 -16 27 5 28 -3 2 -36 -35 -44 -27 -51 48 -44 138
11 263 83 434 247 57 54 104 97 106 95 2 -1 -6 -25 -16 -53z m7523 39 c19 -8
19 -8 -2 -19 -12 -7 -28 -12 -37 -12 -21 0 -31 21 -15 31 17 10 27 10 54 0z
m-8140 -530 c63 -31 66 -34 58 -60 -4 -14 -8 -107 -8 -206 0 -208 4 -196 -105
-325 -40 -47 -107 -127 -150 -178 -42 -51 -99 -134 -126 -185 -65 -122 -130
-189 -207 -213 -70 -22 -73 -19 -83 76 -9 87 9 211 39 264 13 22 36 61 50 86
17 30 40 109 67 235 76 346 144 486 260 534 46 20 132 7 205 -28z m6805 -1052
c0 -7 -21 -33 -48 -59 -41 -42 -59 -52 -147 -79 -55 -16 -113 -33 -130 -37
l-30 -7 30 39 c39 52 60 69 120 101 39 20 127 44 198 52 4 1 7 -4 7 -10z
m4216 -381 c52 -27 124 -98 124 -122 0 -23 -77 -50 -144 -49 -74 1 -145 28
-194 76 -33 31 -62 76 -62 96 0 19 57 31 140 28 68 -3 95 -9 136 -29z m-9076
-8 c0 -5 -2 -10 -4 -10 -3 0 -8 5 -11 10 -3 6 -1 10 4 10 6 0 11 -4 11 -10z
m461 -26 c6 -8 9 -21 5 -29 -5 -14 -9 -14 -42 0 -20 8 -45 15 -56 15 -17 0
-18 3 -8 14 21 26 79 26 101 0z"/>
<path d="M229 5109 c-20 -12 -43 -34 -52 -49 -26 -44 -20 -110 7 -75 6 8 38
29 70 47 43 24 63 42 73 66 l13 32 -37 0 c-21 0 -54 -10 -74 -21z"/>
<path d="M8421 4260 c-13 -3 -30 -15 -39 -28 -13 -20 -13 -22 2 -22 22 0 82
25 90 38 8 13 -22 20 -53 12z"/>
<path d="M797 1483 c-4 -3 -7 -15 -7 -25 0 -21 32 -25 49 -5 17 22 -22 50 -42
30z"/>
<path d="M2216 5357 c22 -76 85 -122 182 -134 47 -5 52 -8 52 -30 0 -39 34
-143 47 -143 25 0 63 20 100 53 21 19 51 41 67 49 l29 15 -59 7 c-76 10 -123
31 -220 99 -86 59 -132 85 -176 98 -27 7 -28 6 -22 -14z"/>
<path d="M7020 1360 c0 -5 4 -10 9 -10 5 0 36 -25 70 -55 56 -50 101 -70 101
-45 0 6 -4 10 -9 10 -4 0 -39 25 -77 55 -67 53 -94 66 -94 45z"/>
</g>
</svg>
