<?xml version="1.0" encoding="iso-8859-1"?>
<!-- Uploaded to: SVG Repo, www.svgrepo.com, Generator: SVG Repo Mixer Tools -->
<!DOCTYPE svg PUBLIC "-//W3C//DTD SVG 1.1//EN" "http://www.w3.org/Graphics/SVG/1.1/DTD/svg11.dtd">
<svg fill="#000000" version="1.1" id="Capa_1" xmlns="http://www.w3.org/2000/svg" xmlns:xlink="http://www.w3.org/1999/xlink" 
	 width="800px" height="800px" viewBox="0 0 29.968 29.968"
	 xml:space="preserve">
<g>
	<g>
		<path d="M25.133,4.834c-3.155-3.157-8.22-4.826-14.642-4.826c-4.628,0-8.323,0.848-8.478,0.884L1.104,1.104L0.893,2.012
			C0.745,2.647-2.644,17.654,4.834,25.133c3.157,3.158,8.221,4.827,14.644,4.827c4.628,0,8.322-0.849,8.478-0.884l0.909-0.213
			l0.212-0.908C29.224,27.318,32.611,12.313,25.133,4.834z M26.337,26.339c-1.321,0.238-3.906,0.621-6.859,0.621
			c-3.912,0-9.259-0.685-12.521-3.948C1.612,17.667,3.052,6.863,3.631,3.627c1.318-0.238,3.896-0.62,6.86-0.62
			c3.911,0,9.258,0.685,12.521,3.947C28.355,12.299,26.916,23.102,26.337,26.339z"/>
		<path d="M18.664,21.348c-0.604-0.121-1.213-0.283-1.818-0.484l0.452-0.842c0.263-0.486,0.079-1.094-0.406-1.354
			c-0.49-0.263-1.095-0.079-1.354,0.408l-0.557,1.036c-0.883-0.424-1.732-0.938-2.519-1.535l0.613-0.613
			c0.391-0.391,0.391-1.023,0-1.414c-0.391-0.391-1.023-0.391-1.414,0l-0.697,0.697c-0.682-0.71-1.271-1.504-1.738-2.375
			l1.371-0.737c0.486-0.262,0.669-0.868,0.407-1.354c-0.262-0.486-0.869-0.669-1.354-0.407L8.463,13.01
			c-0.223-0.763-0.365-1.566-0.391-2.42c-0.017-0.542-0.461-0.971-0.999-0.971c-0.011,0-0.021,0-0.03,0
			c-0.552,0.016-0.986,0.477-0.971,1.029c0.035,1.186,0.253,2.291,0.597,3.326l-0.986,0.53c-0.487,0.261-0.669,0.867-0.408,1.354
			c0.181,0.334,0.525,0.525,0.882,0.525c0.16,0,0.322-0.037,0.473-0.119l0.835-0.449c0.563,1.047,1.271,1.994,2.09,2.838
			l-1.097,1.099c-0.391,0.392-0.391,1.024,0,1.414c0.195,0.194,0.451,0.293,0.707,0.293s0.512-0.099,0.707-0.293l1.165-1.166
			c0.931,0.731,1.944,1.356,2.997,1.87l-0.629,1.172c-0.262,0.486-0.079,1.093,0.407,1.354c0.151,0.082,0.313,0.119,0.473,0.119
			c0.356,0,0.701-0.191,0.882-0.527l0.722-1.342c0.794,0.28,1.595,0.508,2.387,0.664c0.064,0.014,0.131,0.02,0.195,0.02
			c0.468,0,0.886-0.329,0.979-0.805C19.56,21.98,19.206,21.455,18.664,21.348z"/>
	</g>
</g>
</svg>