<?xml version="1.0" standalone="no"?>
<!DOCTYPE svg PUBLIC "-//W3C//DTD SVG 20010904//EN"
 "http://www.w3.org/TR/2001/REC-SVG-20010904/DTD/svg10.dtd">
<svg version="1.0" xmlns="http://www.w3.org/2000/svg"
 width="1261.000000pt" height="1280.000000pt" viewBox="0 0 1261.000000 1280.000000"
 preserveAspectRatio="xMidYMid meet">
<metadata>
Created by potrace 1.15, written by Peter Selinger 2001-2017
</metadata>
<g transform="translate(0.000000,1280.000000) scale(0.100000,-0.100000)"
fill="#000000" stroke="none">
<path d="M2932 10690 c-18 -4 -41 -14 -50 -23 -9 -8 -27 -18 -38 -21 -12 -4
-28 -21 -35 -38 -16 -39 -128 -191 -173 -234 -18 -17 -43 -54 -56 -80 -12 -27
-30 -54 -40 -61 -49 -35 -323 -593 -305 -622 8 -13 -35 -173 -50 -186 -6 -5
-21 -62 -33 -124 -19 -96 -30 -126 -65 -182 -23 -38 -66 -112 -95 -166 -28
-54 -73 -123 -98 -153 -25 -30 -50 -67 -56 -82 -5 -15 -31 -43 -57 -63 -103
-75 -138 -129 -216 -333 -49 -128 -52 -148 -27 -156 20 -7 19 -9 -13 -80 -18
-41 -38 -89 -44 -107 -5 -19 -21 -65 -35 -104 -36 -97 -35 -107 11 -103 30 2
42 10 68 48 19 28 41 46 55 48 20 3 14 -7 -38 -62 -65 -70 -121 -173 -141
-261 -10 -44 -8 -196 3 -214 2 -3 0 -29 -5 -56 -15 -75 -13 -137 6 -202 19
-67 87 -167 139 -207 20 -15 45 -44 55 -64 31 -58 98 -119 168 -153 176 -84
418 -21 511 133 13 21 44 50 70 65 60 35 140 90 172 119 14 12 58 39 98 59 84
43 147 108 163 169 28 103 41 138 80 205 60 105 90 123 230 137 95 9 161 -12
219 -72 56 -57 143 -118 223 -154 l61 -27 -55 -16 c-30 -8 -144 -41 -254 -72
-197 -55 -204 -58 -464 -193 l-263 -137 -249 -204 -249 -203 -182 -225 -183
-224 -140 -263 -140 -262 -83 -280 -82 -279 -29 -339 -28 -339 33 -294 34
-294 91 -276 91 -277 138 -243 c77 -134 148 -256 160 -271 12 -15 118 -136
237 -270 l215 -242 217 -157 c119 -86 248 -175 286 -198 81 -48 519 -243 615
-273 107 -35 233 -59 455 -88 298 -39 551 -40 825 -1 404 57 476 78 845 251
l285 134 212 158 c308 231 337 258 538 491 179 210 183 216 302 430 66 120
129 236 140 257 11 22 66 187 123 367 l104 328 29 293 29 293 -28 290 -27 290
-85 272 c-77 248 -92 285 -166 424 -44 83 -81 153 -81 154 0 1 26 -8 59 -21
98 -40 188 -55 356 -61 116 -3 193 -1 280 11 65 9 139 16 163 16 62 0 256 -51
434 -114 84 -30 218 -78 298 -106 270 -96 621 -171 1030 -221 193 -23 256 -45
292 -104 24 -39 23 -74 -6 -257 -14 -84 -28 -182 -31 -218 -13 -133 31 -381
100 -568 45 -120 75 -178 146 -284 32 -47 141 -252 242 -455 154 -308 193
-397 241 -541 43 -127 56 -180 51 -202 -7 -32 -56 -80 -113 -109 -74 -38 -121
-119 -122 -208 0 -45 5 -57 40 -101 48 -61 138 -135 285 -232 114 -76 226
-180 418 -391 121 -134 158 -154 267 -146 55 3 83 1 105 -11 24 -12 37 -13 77
-3 26 7 51 11 55 8 4 -3 19 0 33 6 14 6 47 9 73 8 51 -3 97 18 97 45 0 8 7 26
16 39 33 50 -8 95 -85 95 -14 0 -66 17 -116 39 -49 21 -116 46 -147 55 -57 16
-58 17 -72 69 -42 148 -58 226 -76 372 -28 230 -99 479 -201 706 -22 49 -63
153 -90 232 -49 139 -124 405 -117 413 2 2 35 -19 74 -47 38 -28 105 -69 148
-90 121 -60 192 -116 387 -305 122 -119 197 -183 236 -204 32 -17 84 -47 116
-67 52 -32 66 -36 131 -37 65 -1 76 2 109 27 l37 28 76 -17 c132 -29 228 -8
261 57 10 19 9 29 -5 54 -16 27 -24 30 -72 33 -38 2 -64 11 -94 31 -70 48
-103 61 -193 77 -49 8 -93 20 -99 27 -13 14 -108 261 -123 322 -6 22 -22 99
-36 170 -13 72 -40 176 -59 230 -46 134 -161 391 -223 501 -104 182 -193 403
-354 884 -98 290 -137 425 -198 690 -22 96 -47 198 -56 225 -18 60 -90 517
-105 670 -21 214 -48 319 -109 411 -66 101 -136 161 -257 223 -149 76 -320 91
-1070 94 -421 1 -562 -2 -749 -16 -344 -27 -678 -64 -877 -97 -97 -17 -191
-30 -209 -30 -28 0 -54 23 -226 200 -254 261 -398 378 -553 453 -30 15 -98 56
-150 92 -52 37 -153 98 -225 137 -158 87 -373 214 -400 237 -32 28 -186 118
-256 150 -35 17 -109 46 -164 65 -90 31 -100 37 -106 63 -22 104 -135 257
-237 322 -90 57 -206 75 -324 50 -57 -12 -184 -72 -257 -121 -82 -55 -230
-178 -248 -205 -23 -34 -257 -238 -311 -270 -37 -22 -55 -26 -112 -25 -37 1
-78 6 -91 11 -13 5 -60 45 -105 88 l-81 78 -18 85 c-10 47 -17 105 -16 130 1
25 -8 89 -19 142 -22 107 -29 128 -40 128 -9 0 -34 145 -27 156 9 15 -86 486
-102 509 -4 6 -8 20 -9 32 0 12 -10 35 -21 50 -10 15 -40 110 -66 211 -68 265
-104 348 -187 431 -42 42 -133 102 -153 100 -5 -1 -25 -5 -43 -9z m-204 -1405
c6 -16 18 -56 27 -87 8 -32 26 -69 39 -83 14 -15 29 -50 36 -85 7 -33 16 -60
21 -60 17 0 29 -71 34 -204 4 -105 9 -145 21 -164 13 -19 18 -60 22 -173 l5
-149 -53 0 c-29 0 -89 -7 -132 -16 -76 -15 -82 -15 -121 2 -32 15 -64 19 -132
18 -75 -1 -116 -9 -249 -48 -185 -54 -207 -65 -306 -143 -67 -52 -72 -54 -50
-24 14 19 39 60 55 90 25 47 36 57 70 67 22 6 51 22 65 36 30 29 116 172 131
219 14 40 109 254 143 319 12 25 29 64 36 88 8 25 25 51 41 63 29 20 90 108
149 213 19 34 46 74 60 88 14 14 33 38 44 53 20 29 27 26 44 -20z m-1006
-1292 l36 -18 -63 -42 -63 -42 17 42 c10 23 21 50 24 60 4 9 8 17 10 17 2 0
20 -8 39 -17z m3602 -713 c52 -10 123 -29 158 -41 96 -32 238 -107 284 -149
22 -20 53 -46 69 -56 53 -35 161 -150 220 -237 64 -93 114 -177 115 -190 0 -4
-78 55 -172 131 -173 139 -173 139 -453 280 -277 140 -282 142 -473 192 -259
69 -252 65 -162 79 41 7 82 14 90 16 33 9 235 -7 324 -25z m4702 -615 c16 -25
15 -33 -15 -168 -41 -180 -52 -273 -42 -371 6 -67 5 -76 -8 -71 -17 7 -422
222 -603 321 -59 33 -108 61 -108 64 0 3 35 16 78 28 42 13 187 66 322 117
135 51 252 95 260 98 8 3 34 6 57 6 35 1 46 -4 59 -24z m591 -1920 c111 -196
169 -312 216 -430 19 -49 47 -116 61 -148 47 -105 32 -155 -76 -249 -33 -29
-67 -68 -75 -86 -8 -19 -16 -33 -18 -30 -11 11 -81 320 -120 534 -25 137 -48
256 -51 264 -6 18 -44 276 -44 305 0 28 7 17 107 -160z"/>
</g>
</svg>
