<?xml version="1.0" standalone="no"?>
<!DOCTYPE svg PUBLIC "-//W3C//DTD SVG 20010904//EN"
 "http://www.w3.org/TR/2001/REC-SVG-20010904/DTD/svg10.dtd">
<svg version="1.0" xmlns="http://www.w3.org/2000/svg"
 width="1051.000000pt" height="1280.000000pt" viewBox="0 0 1051.000000 1280.000000"
 preserveAspectRatio="xMidYMid meet">
<metadata>
Created by potrace 1.15, written by Peter Selinger 2001-2017
</metadata>
<g transform="translate(0.000000,1280.000000) scale(0.100000,-0.100000)"
fill="#000000" stroke="none">
<path d="M250 12768 c1 -73 39 -431 47 -439 4 -4 60 -26 123 -47 584 -202
1418 -596 2370 -1121 291 -161 949 -535 950 -541 0 -3 -80 -25 -178 -49 -829
-205 -1433 -448 -1927 -778 -390 -260 -1629 -1110 -1628 -1118 0 -5 73 -48
162 -96 l161 -87 173 76 c94 42 456 217 802 390 979 488 1244 601 1780 760
170 51 543 138 550 130 4 -4 22 -256 55 -763 76 -1181 148 -1713 310 -2305 16
-58 65 -274 109 -480 196 -919 239 -1204 248 -1635 l5 -250 -55 -181 c-111
-362 -251 -897 -336 -1279 -137 -618 -361 -1955 -426 -2535 -19 -173 -20 -379
-2 -404 13 -17 25 -15 227 43 117 33 217 66 222 73 37 57 136 454 313 1253
240 1082 343 1463 490 1820 88 214 335 680 398 751 87 98 136 47 282 -295 91
-214 120 -294 250 -686 132 -398 172 -505 315 -830 179 -408 277 -696 404
-1195 53 -209 131 -561 156 -707 7 -39 16 -76 19 -81 5 -8 532 -83 539 -77 1
1 -24 98 -58 214 -159 563 -272 1065 -555 2486 -118 589 -248 1225 -290 1415
-219 991 -265 1331 -265 1980 l0 306 84 299 c206 734 387 1291 621 1910 92
242 370 944 378 951 3 3 34 0 69 -7 76 -14 131 -56 334 -252 280 -270 503
-534 1162 -1374 300 -382 542 -683 690 -857 146 -172 265 -306 273 -306 4 0 7
50 8 111 l2 111 -82 152 c-312 576 -701 1182 -1452 2260 -125 180 -231 334
-233 340 -7 18 91 112 141 136 64 31 154 43 239 31 94 -13 175 -39 391 -123
205 -81 360 -128 417 -128 52 0 153 75 299 219 140 139 174 205 174 331 0 73
-4 93 -29 144 -52 107 -196 238 -385 351 -53 32 -73 38 -110 36 -63 -3 -175
-30 -371 -91 -254 -78 -316 -93 -410 -94 -69 -1 -92 3 -120 19 -38 22 -71 79
-74 126 -1 29 13 37 1239 722 682 381 1246 696 1254 701 10 6 -11 33 -84 106
l-97 98 -517 -208 c-664 -267 -810 -329 -1180 -494 -397 -178 -834 -396 -1114
-555 l-127 -73 -41 46 c-63 72 -105 89 -226 94 -119 5 -166 -2 -452 -69 -117
-28 -261 -59 -320 -70 -451 -83 -791 -60 -1181 81 -278 101 -466 147 -895 220
-308 53 -413 74 -558 116 -124 36 -310 105 -393 147 -27 13 -141 59 -254 102
-210 79 -618 232 -1230 463 -190 72 -556 210 -815 307 -688 259 -757 285 -761
285 -2 0 -4 -15 -4 -32z m6070 -2989 c100 -10 401 -57 407 -63 2 -2 -113 -243
-255 -537 -511 -1052 -643 -1371 -829 -1994 l-18 -60 -83 -42 c-113 -58 -158
-55 -225 15 l-28 29 49 179 c83 300 102 409 102 584 0 423 -158 708 -404 727
-84 7 -158 -16 -234 -71 -113 -83 -182 -218 -184 -356 -3 -202 20 -657 36
-715 22 -81 84 -209 146 -300 27 -42 50 -78 50 -81 0 -3 -39 -24 -87 -46 -112
-53 -183 -57 -253 -16 -89 52 -87 48 -100 273 -24 434 -61 722 -205 1605 -64
390 -135 841 -135 856 0 0 46 -8 103 -18 468 -85 834 -95 1192 -32 455 79 660
93 955 63z"/>
</g>
</svg>
