<?xml version="1.0" standalone="no"?>
<!DOCTYPE svg PUBLIC "-//W3C//DTD SVG 20010904//EN"
 "http://www.w3.org/TR/2001/REC-SVG-20010904/DTD/svg10.dtd">
<svg version="1.0" xmlns="http://www.w3.org/2000/svg"
 width="1280.000000pt" height="843.000000pt" viewBox="0 0 1280.000000 843.000000"
 preserveAspectRatio="xMidYMid meet">
<metadata>
Created by potrace 1.15, written by Peter Selinger 2001-2017
</metadata>
<g transform="translate(0.000000,843.000000) scale(0.100000,-0.100000)"
fill="#000000" stroke="none">
<path d="M5615 8424 c-97 -14 -235 -61 -321 -109 -246 -138 -415 -374 -470
-660 -55 -282 58 -603 289 -821 186 -175 412 -255 682 -241 133 8 201 25 321
82 121 56 195 108 275 192 127 132 209 289 250 479 16 78 16 275 0 344 -48
204 -169 403 -321 528 -81 66 -259 155 -365 182 -78 20 -274 34 -340 24z"/>
<path d="M3963 7235 c-170 -37 -328 -184 -403 -374 -59 -152 -93 -364 -92
-591 0 -633 311 -1279 784 -1632 200 -149 441 -255 713 -311 158 -33 284 -45
611 -57 524 -19 686 -11 879 43 121 35 415 105 415 100 0 -12 -224 -277 -286
-339 -190 -189 -504 -290 -959 -309 -138 -6 -167 -4 -355 25 -207 32 -470 50
-527 35 l-28 -7 50 -45 c33 -30 106 -72 220 -128 244 -119 290 -132 660 -190
127 -19 244 -37 260 -40 105 -17 350 -25 480 -15 412 31 719 162 994 425 118
113 189 200 305 373 196 291 288 511 347 827 30 159 37 405 15 514 -57 279
-229 431 -475 419 -152 -7 -221 -55 -300 -208 -68 -132 -95 -222 -216 -730
-61 -258 -148 -528 -172 -537 -7 -3 -75 2 -151 11 -76 8 -246 20 -377 26 -277
13 -416 28 -580 65 -289 65 -514 157 -724 295 -111 73 -182 144 -257 256 -172
258 -231 532 -254 1184 -17 461 -31 571 -91 717 -35 83 -83 132 -164 169 -97
44 -206 54 -322 29z"/>
<path d="M5895 6503 c-102 -14 -267 -80 -374 -151 -262 -174 -425 -492 -408
-801 9 -168 57 -316 151 -461 142 -219 356 -360 615 -405 440 -77 877 181
1023 605 56 163 68 367 29 515 -27 102 -105 261 -170 347 -134 176 -362 310
-591 347 -62 10 -212 12 -275 4z"/>
<path d="M2110 4866 c-173 -49 -338 -219 -431 -446 -83 -206 -130 -430 -189
-920 -66 -540 -88 -632 -265 -1080 -42 -107 -99 -256 -127 -330 -115 -312
-254 -516 -549 -806 -131 -129 -373 -353 -511 -472 l-38 -34 0 -188 0 -188
311 187 c435 260 722 478 1043 791 633 616 1049 1318 1236 2085 119 489 122
911 7 1154 -89 189 -303 298 -487 247z"/>
<path d="M9275 4789 c-127 -21 -239 -81 -324 -175 -145 -158 -408 -529 -546
-769 -224 -389 -435 -907 -507 -1245 -36 -173 -40 -407 -9 -558 15 -74 65
-195 114 -277 228 -379 617 -754 1278 -1235 161 -117 483 -323 596 -380 90
-47 213 -94 213 -83 0 11 -75 99 -221 258 -369 402 -565 647 -784 980 -191
291 -358 600 -414 769 -74 223 -35 332 216 604 191 206 479 595 613 827 94
163 202 417 247 583 22 82 26 118 26 232 0 113 -4 145 -22 194 -57 158 -146
239 -300 272 -73 15 -102 16 -176 3z"/>
<path d="M10186 4726 c-170 -91 -229 -161 -278 -331 -20 -69 -23 -102 -22
-245 1 -172 14 -281 59 -482 208 -923 800 -1798 1650 -2438 295 -222 681 -451
1068 -634 l137 -65 0 178 0 179 -147 114 c-82 63 -197 152 -258 198 -311 237
-484 409 -627 625 -66 99 -445 848 -501 990 -42 107 -63 188 -156 605 -120
536 -173 709 -295 945 -42 83 -66 116 -141 190 -97 98 -187 153 -324 200 l-69
23 -96 -52z"/>
<path d="M3128 4760 c-125 -22 -242 -87 -303 -168 -115 -149 -87 -411 70 -669
142 -233 439 -536 775 -789 124 -93 408 -284 530 -355 98 -58 189 -144 228
-217 31 -57 53 -155 47 -202 -2 -14 -9 -68 -15 -120 -58 -475 -273 -1088 -636
-1810 -106 -212 -196 -395 -199 -408 -6 -22 -3 -21 55 15 114 71 621 637 862
963 459 621 693 1135 692 1520 0 168 -33 277 -152 514 -231 458 -733 1030
-1252 1425 -205 156 -362 258 -434 280 -77 24 -200 34 -268 21z"/>
</g>
</svg>
