<?xml version="1.0" standalone="no"?>
<!DOCTYPE svg PUBLIC "-//W3C//DTD SVG 20010904//EN"
 "http://www.w3.org/TR/2001/REC-SVG-20010904/DTD/svg10.dtd">
<svg version="1.0" xmlns="http://www.w3.org/2000/svg"
 width="1280.000000pt" height="1157.000000pt" viewBox="0 0 1280.000000 1157.000000"
 preserveAspectRatio="xMidYMid meet">
<metadata>
Created by potrace 1.15, written by Peter Selinger 2001-2017
</metadata>
<g transform="translate(0.000000,1157.000000) scale(0.100000,-0.100000)"
fill="#000000" stroke="none">
<path d="M10740 11563 c-210 -34 -351 -81 -453 -150 -117 -80 -150 -92 -278
-104 -61 -5 -132 -14 -158 -21 -73 -18 -165 -62 -208 -102 -31 -28 -54 -39
-99 -47 -138 -24 -164 -32 -209 -61 -25 -17 -68 -60 -95 -95 -59 -77 -86 -99
-153 -125 -111 -42 -208 -147 -242 -261 -32 -108 -12 -380 39 -544 41 -127 65
-240 81 -377 8 -71 20 -137 27 -146 60 -81 108 -158 183 -295 110 -202 170
-291 258 -385 103 -110 177 -232 177 -291 0 -33 -375 -302 -515 -369 l-70 -34
-210 -7 c-141 -4 -230 -12 -270 -22 -34 -9 -135 -52 -225 -96 -208 -100 -473
-212 -593 -250 -136 -43 -276 -61 -483 -61 -191 0 -337 16 -480 50 -136 32
-234 50 -333 59 -146 13 -160 32 -193 244 -32 210 -74 294 -170 341 -78 38
-174 48 -336 36 -164 -13 -202 -22 -245 -59 -93 -83 -130 -217 -109 -405 18
-161 38 -205 146 -311 243 -240 821 -630 1042 -704 128 -43 182 -45 420 -22
121 11 372 35 559 51 551 50 579 55 976 188 l237 80 78 -71 c44 -39 95 -90
115 -114 99 -120 204 -348 238 -520 24 -116 25 -147 10 -209 -14 -56 -44 -83
-258 -233 -190 -133 -302 -221 -325 -255 -36 -56 -98 -97 -178 -116 -23 -6
-171 -17 -328 -24 -225 -11 -293 -17 -325 -31 -28 -11 -88 -20 -195 -26 -216
-13 -376 -33 -655 -84 -467 -86 -1105 -190 -1278 -210 -31 -3 -64 -14 -73 -22
-25 -26 -91 -32 -339 -32 -288 -1 -513 13 -725 45 -205 31 -397 40 -560 25
-69 -6 -307 -36 -530 -66 -858 -116 -1422 -165 -1875 -164 -248 0 -285 5 -347
43 -92 58 -201 123 -277 164 -103 57 -197 136 -248 208 -57 82 -69 117 -78
218 -11 137 -30 146 -210 102 -141 -35 -277 -81 -323 -110 -57 -35 -67 -70
-66 -211 1 -130 24 -265 54 -325 30 -59 115 -128 291 -235 90 -55 181 -115
201 -133 42 -38 58 -92 58 -200 0 -37 7 -98 15 -136 17 -79 43 -114 113 -148
41 -20 55 -21 191 -15 90 4 199 16 286 32 231 43 244 45 400 45 332 0 1157
-84 1335 -136 30 -9 82 -23 115 -31 86 -20 441 -29 601 -14 143 14 469 61 582
85 40 9 93 16 117 16 24 0 156 -25 293 -54 276 -61 250 -59 1012 -86 506 -19
712 -45 949 -122 111 -36 140 -42 243 -46 140 -5 147 -10 157 -106 7 -70 28
-108 105 -195 123 -139 183 -239 416 -696 284 -559 332 -639 510 -855 333
-405 752 -1019 1050 -1540 198 -346 326 -483 556 -598 126 -63 177 -77 284
-76 106 0 183 23 286 85 175 105 335 362 409 654 36 141 93 478 105 610 22
260 32 628 34 1265 3 725 0 691 63 786 41 61 63 130 63 193 0 25 5 64 11 86
27 97 189 285 247 285 41 0 124 43 155 80 65 77 91 154 112 330 10 81 22 136
38 172 30 66 41 117 67 333 35 287 87 564 121 642 16 37 24 71 45 189 2 11 15
37 28 57 41 60 55 119 101 412 24 154 62 390 85 525 61 369 66 443 47 646 -10
93 -24 259 -32 369 -9 110 -25 293 -35 407 -26 272 -26 373 -1 414 35 58 238
164 402 210 258 73 461 225 501 376 16 64 1 138 -51 244 -52 104 -130 188
-191 204 -24 7 -70 32 -102 57 -47 37 -68 47 -108 51 -73 7 -126 -10 -304 -99
-240 -119 -342 -144 -400 -98 -14 11 -26 26 -26 33 0 26 -46 55 -104 65 -119
22 -135 61 -60 141 25 27 66 59 91 71 40 19 49 20 86 9 23 -6 75 -29 115 -51
41 -21 76 -39 79 -39 10 0 -8 54 -29 88 -28 46 -69 63 -160 70 -87 6 -124 24
-112 55 4 10 18 23 31 28 32 12 23 24 -31 39 -25 7 -54 23 -66 35 -34 37 -19
61 62 100 80 39 108 61 108 86 0 27 -87 97 -175 139 -155 75 -307 91 -363 37
-34 -32 -46 -33 -72 -7 -40 40 -18 151 42 207 45 43 117 66 224 73 85 5 107
10 145 33 52 32 143 113 114 102 -113 -43 -192 -66 -255 -73 -82 -10 -177 -5
-186 10 -9 13 16 96 40 138 16 27 21 58 26 156 6 136 7 140 85 186 l50 30 -65
-5 c-49 -3 -89 -15 -165 -50 -122 -55 -136 -59 -155 -47 -12 8 -3 21 49 71
l64 61 -104 -9 c-57 -4 -156 -8 -219 -8 -113 0 -115 0 -118 23 -2 13 7 40 22
60 13 20 28 54 31 74 4 21 12 41 19 47 6 5 44 14 85 20 70 11 194 53 216 72 9
9 -164 10 -215 2z m-3380 -7547 c136 -26 606 -76 951 -100 217 -16 295 -35
405 -100 70 -41 108 -78 128 -127 8 -20 32 -58 52 -85 68 -89 93 -190 119
-479 22 -243 33 -845 15 -845 -8 0 -81 67 -164 150 l-151 149 19 48 c78 204
81 215 81 314 0 87 -2 99 -27 137 -15 22 -47 52 -70 66 -83 47 -140 58 -341
63 l-187 5 -236 242 c-130 132 -257 256 -283 274 -25 18 -86 54 -136 80 -66
35 -112 69 -180 134 -49 48 -85 87 -80 88 6 0 44 -6 85 -14z"/>
</g>
</svg>
