<?xml version="1.0" standalone="no"?>
<!DOCTYPE svg PUBLIC "-//W3C//DTD SVG 20010904//EN"
 "http://www.w3.org/TR/2001/REC-SVG-20010904/DTD/svg10.dtd">
<svg version="1.0" xmlns="http://www.w3.org/2000/svg"
 width="960.000000pt" height="1280.000000pt" viewBox="0 0 960.000000 1280.000000"
 preserveAspectRatio="xMidYMid meet">
<metadata>
Created by potrace 1.15, written by Peter Selinger 2001-2017
</metadata>
<g transform="translate(0.000000,1280.000000) scale(0.100000,-0.100000)"
fill="#000000" stroke="none">
<path d="M5312 12470 c-4 -11 -23 -28 -42 -38 -45 -22 -62 -72 -35 -102 17
-19 17 -24 -13 -147 -69 -283 -69 -424 2 -913 14 -96 28 -187 31 -202 5 -33
-11 -37 -21 -6 -10 32 -119 143 -171 173 -23 14 -43 30 -43 35 0 18 -51 43
-115 56 -51 11 -105 12 -262 4 -109 -5 -214 -15 -233 -21 -51 -18 -95 -54
-146 -121 -37 -49 -44 -66 -43 -97 3 -41 -10 -61 -116 -180 -49 -54 -67 -87
-79 -143 -6 -26 -9 -27 -43 -22 -47 7 -103 -3 -103 -20 0 -8 -7 -19 -15 -26
-22 -18 -18 -77 6 -111 27 -38 98 -79 137 -79 24 0 32 -5 32 -17 0 -10 17 -69
39 -131 l38 -112 -23 -47 c-30 -59 -30 -77 0 -101 33 -26 46 -138 22 -194 -21
-49 -21 -151 -1 -168 14 -12 21 -40 10 -40 -3 0 -23 9 -45 20 -22 11 -45 20
-52 20 -20 1 -65 42 -73 68 -6 22 -28 28 -59 16 -19 -7 -20 -27 -4 -54 10 -16
8 -27 -14 -65 -21 -40 -34 -51 -83 -71 -64 -25 -122 -76 -193 -169 -25 -33
-87 -103 -136 -155 l-91 -96 -47 -129 c-25 -72 -67 -177 -93 -235 -75 -171
-425 -1161 -486 -1378 -19 -68 -19 -76 -5 -107 21 -43 20 -55 -3 -55 -10 0
-24 -6 -30 -14 -14 -17 -32 -411 -23 -524 2 -39 1 -79 -3 -89 -4 -10 -9 -34
-11 -53 -3 -41 -163 -524 -199 -605 -14 -29 -25 -65 -25 -79 0 -14 -11 -42
-25 -62 -29 -43 -31 -60 -10 -72 13 -6 17 -32 20 -118 2 -60 11 -132 20 -160
29 -96 116 -150 173 -107 34 25 38 37 216 573 160 482 175 518 301 750 130
239 190 389 345 860 160 488 208 622 223 617 16 -5 107 -287 113 -352 5 -48 2
-71 -15 -113 -31 -78 -28 -99 15 -117 34 -14 36 -17 30 -50 -7 -38 10 -109 30
-126 7 -6 11 -23 9 -37 -2 -15 -7 -48 -10 -75 -6 -42 -14 -55 -71 -112 -49
-49 -75 -85 -104 -147 -62 -136 -97 -253 -119 -403 -11 -77 -42 -239 -70 -360
-69 -303 -92 -425 -161 -861 -34 -209 -72 -446 -86 -529 -29 -168 -29 -154 17
-485 31 -223 76 -468 110 -603 11 -43 29 -142 40 -220 26 -188 73 -447 114
-632 18 -82 36 -168 39 -190 3 -22 19 -128 35 -235 27 -180 39 -280 46 -385 5
-80 17 -151 32 -204 13 -45 14 -63 5 -98 -7 -26 -9 -76 -6 -131 5 -71 4 -94
-10 -119 -9 -18 -112 -129 -228 -248 -117 -119 -218 -226 -225 -238 -16 -28
-17 -286 -2 -320 15 -34 34 -42 153 -71 223 -54 315 -43 497 59 53 30 100 55
103 55 3 0 6 -36 6 -79 0 -153 33 -188 230 -241 102 -27 219 -24 314 9 58 20
445 212 541 267 28 16 85 46 127 67 85 42 112 70 153 160 24 51 26 66 20 125
-6 71 -7 138 -3 280 2 71 -3 104 -25 177 -15 50 -32 129 -37 177 -13 113 -44
267 -59 296 -6 12 -20 22 -31 22 -14 0 -21 9 -26 38 -3 20 -17 91 -31 157 -14
66 -26 161 -27 210 -3 90 -3 90 45 180 26 50 70 151 97 225 133 357 184 497
192 535 21 93 53 588 65 1015 7 213 25 558 50 942 8 123 19 304 25 403 6 99
17 257 25 350 12 141 26 464 33 762 1 42 -5 80 -18 113 -24 61 -25 98 -4 148
11 28 15 64 13 147 -2 72 3 148 15 220 18 106 22 117 110 279 75 138 100 176
141 211 69 58 145 115 154 115 4 0 13 -26 20 -57 7 -32 31 -105 53 -163 22
-58 55 -148 73 -200 35 -104 151 -362 214 -480 22 -41 41 -84 41 -95 1 -33 80
-199 183 -382 57 -101 94 -178 91 -187 -3 -9 18 -77 46 -153 66 -171 137 -380
145 -426 4 -20 0 -91 -9 -159 -33 -252 -34 -259 -19 -274 17 -17 54 -27 79
-22 27 5 72 76 87 138 22 85 31 80 73 -45 18 -55 20 -178 4 -234 -12 -44 -2
-118 18 -126 9 -3 28 3 43 14 23 17 31 18 58 8 25 -9 34 -9 46 3 25 26 65 156
65 214 0 54 -72 528 -91 599 -5 21 -46 148 -89 283 -44 135 -82 260 -85 278
-19 89 -46 328 -53 455 -7 135 -9 145 -33 165 -37 32 -83 130 -71 151 7 13 3
33 -13 74 -13 31 -69 182 -125 336 -122 335 -125 342 -297 753 -74 178 -155
378 -179 443 -53 142 -111 238 -162 271 -90 60 -123 78 -137 78 -23 0 -117 64
-182 123 -72 66 -112 94 -145 102 -14 4 -30 17 -37 31 -6 13 -15 24 -21 24
-14 0 -13 36 2 60 11 17 9 23 -10 42 -18 18 -34 23 -80 23 l-57 0 0 -40 c0
-33 -3 -40 -19 -40 -14 0 -24 13 -35 44 -11 30 -27 51 -49 64 l-33 19 4 212
c2 116 9 235 16 263 14 63 0 298 -20 335 -8 13 -23 88 -35 168 -11 80 -35 228
-52 330 -54 329 -64 403 -70 502 -7 136 12 298 47 399 46 134 59 159 95 180
40 24 53 61 31 92 -8 12 -15 38 -15 58 0 39 -11 49 -56 49 -16 0 -27 -7 -32
-20z m626 -3902 c6 -7 36 -76 67 -153 31 -77 59 -146 62 -152 3 -7 -2 -13 -10
-13 -8 0 -38 -16 -66 -35 -28 -19 -54 -35 -58 -35 -4 0 -42 21 -85 47 l-78 48
0 95 c0 52 -3 111 -6 130 l-6 36 69 21 c83 25 98 27 111 11z m-112 -409 c27
-12 50 -23 52 -24 3 -3 -110 -160 -125 -175 -3 -3 -2 33 1 80 7 85 15 140 21
140 1 0 24 -10 51 -21z m-1417 -2569 c10 -126 15 -224 41 -770 6 -118 15 -306
21 -417 8 -151 7 -264 -2 -455 -16 -332 -17 -1044 -1 -1163 11 -84 68 -322
127 -530 37 -133 49 -217 36 -273 -28 -130 -33 -180 -36 -347 -1 -100 -5 -187
-8 -192 -5 -7 -22 -7 -53 -1 -32 7 -54 7 -70 -1 -13 -6 -24 -9 -24 -6 0 2 14
44 30 93 37 112 38 170 5 246 -16 37 -25 75 -25 109 0 85 -38 257 -66 300 -13
20 -28 37 -33 37 -18 0 -27 50 -46 252 -2 26 -14 67 -25 90 -24 50 -25 73 -4
145 14 47 14 68 5 127 -5 39 -13 170 -15 291 -4 186 -10 246 -35 386 -27 151
-31 201 -45 595 -8 236 -18 605 -22 820 -6 373 -5 392 13 430 67 136 207 384
214 377 4 -4 12 -69 18 -143z"/>
<path d="M4707 11563 c-8 -10 -18 -45 -22 -78 -10 -85 -19 -97 -59 -89 -20 3
-36 1 -40 -5 -8 -12 65 -13 194 -2 57 5 69 8 48 13 -25 8 -26 10 -21 65 7 81
-7 113 -50 113 -20 0 -40 -7 -50 -17z"/>
<path d="M5480 9856 c0 -18 30 -76 39 -76 6 0 11 5 11 10 0 6 -4 10 -9 10 -5
0 -11 12 -13 27 -2 14 -9 28 -15 31 -7 2 -13 1 -13 -2z"/>
</g>
</svg>
