<?xml version="1.0" standalone="no"?>
<!DOCTYPE svg PUBLIC "-//W3C//DTD SVG 20010904//EN"
 "http://www.w3.org/TR/2001/REC-SVG-20010904/DTD/svg10.dtd">
<svg version="1.0" xmlns="http://www.w3.org/2000/svg"
 width="640.000000pt" height="1280.000000pt" viewBox="0 0 640.000000 1280.000000"
 preserveAspectRatio="xMidYMid meet">
<metadata>
Created by potrace 1.15, written by Peter Selinger 2001-2017
</metadata>
<g transform="translate(0.000000,1280.000000) scale(0.100000,-0.100000)"
fill="#000000" stroke="none">
<path d="M2923 12786 c-200 -46 -370 -198 -432 -386 -17 -52 -21 -88 -21 -204
0 -127 3 -146 24 -191 39 -84 126 -152 223 -174 38 -8 38 -8 13 -19 -14 -5
-83 -37 -152 -71 -103 -49 -141 -73 -198 -127 -109 -103 -170 -220 -210 -401
-19 -87 -11 -117 9 -37 19 74 22 45 5 -47 -10 -55 -18 -195 -24 -409 -7 -278
-12 -346 -34 -468 -36 -203 -40 -264 -22 -351 l14 -75 -63 -126 -64 -127 -47
-7 c-107 -14 -164 -66 -164 -148 0 -46 25 -144 42 -165 7 -9 5 -28 -6 -60 -9
-27 -19 -74 -23 -105 -3 -32 -10 -58 -14 -58 -5 0 -9 -7 -9 -16 0 -13 -13 -14
-92 -9 -110 8 -220 -11 -295 -48 -211 -107 -283 -449 -137 -649 44 -59 131
-125 223 -168 52 -24 70 -38 67 -49 -3 -9 -10 -61 -16 -116 -6 -55 -13 -118
-16 -140 -3 -22 -9 -290 -14 -595 -7 -517 -9 -562 -29 -650 -70 -306 -93 -436
-88 -510 8 -146 76 -270 221 -407 87 -82 157 -127 217 -138 30 -5 41 -2 67 20
18 15 32 33 32 40 0 7 -26 66 -59 131 -50 102 -59 131 -65 196 l-8 77 29 -11
c23 -8 38 -30 73 -102 48 -97 70 -116 124 -102 34 8 34 8 -14 320 -47 306 -57
493 -41 716 12 149 21 229 75 630 14 102 32 259 42 350 9 91 19 168 23 172 3
4 35 4 71 0 l65 -7 6 -92 c5 -65 12 -97 23 -109 9 -8 14 -19 12 -22 -5 -9 -31
-160 -47 -282 -8 -57 -13 -191 -13 -335 1 -302 17 -438 104 -845 21 -102 49
-239 60 -305 24 -135 50 -205 89 -238 16 -13 33 -46 45 -82 41 -134 168 -402
292 -616 133 -229 194 -343 194 -364 0 -11 -16 -69 -36 -130 -19 -60 -64 -200
-99 -310 -79 -246 -126 -417 -159 -577 -27 -131 -52 -359 -42 -383 3 -8 1 -28
-5 -43 -45 -117 -85 -374 -76 -477 5 -49 3 -64 -8 -69 -20 -7 -70 -110 -83
-171 -28 -123 -71 -431 -72 -510 l-1 -40 -19 24 c-20 23 -20 23 -20 2 0 -12 9
-39 20 -61 11 -22 20 -41 20 -44 0 -2 -15 -13 -34 -24 -45 -27 -70 -74 -61
-119 9 -51 118 -160 240 -240 56 -38 177 -108 268 -158 92 -49 166 -92 167
-95 0 -3 -57 -32 -127 -65 -249 -117 -335 -196 -350 -324 -12 -107 61 -239
185 -332 96 -72 304 -171 483 -230 183 -60 585 -164 829 -213 275 -56 467 -78
690 -80 l195 -1 59 30 c77 39 100 77 92 156 -10 105 -82 270 -216 499 -126
215 -132 236 -70 256 44 14 54 36 75 156 25 142 8 176 -112 237 -43 22 -280
109 -418 155 l-81 26 -48 197 c-45 186 -99 353 -114 353 -4 0 -8 37 -10 83 -3
116 -27 236 -84 422 -23 72 -33 132 -39 215 -9 147 -22 241 -65 470 -46 240
-52 408 -30 772 13 215 14 297 5 415 -9 130 -51 402 -65 424 -2 4 45 107 105
227 101 205 200 437 215 507 5 24 18 36 62 59 30 16 63 40 74 53 66 84 107
337 130 808 6 121 15 265 20 320 31 306 29 550 -4 613 -13 24 -12 31 10 72 38
74 41 75 37 13 -2 -42 0 -52 6 -38 5 11 10 15 10 9 1 -6 14 -143 31 -305 43
-429 46 -496 26 -609 -9 -52 -42 -171 -71 -265 -89 -277 -105 -362 -85 -450
13 -61 51 -120 81 -128 33 -9 72 39 103 130 24 70 27 73 22 33 -5 -51 -130
-306 -158 -324 -27 -17 -22 -24 27 -34 163 -35 292 115 370 427 33 131 49 296
75 736 28 480 46 659 100 990 64 393 65 619 4 873 -24 96 -24 103 -8 125 l16
22 -5 -22 c-6 -28 -3 -28 33 -3 29 21 29 21 33 153 2 73 12 299 22 502 14 301
16 393 6 493 -17 191 -58 329 -132 444 l-31 48 66 197 c116 354 146 485 146
649 0 127 -13 190 -56 277 -19 37 -34 76 -34 86 0 11 27 46 60 80 108 111 162
269 140 418 -32 226 -61 302 -145 382 -125 119 -212 138 -930 211 -357 36
-444 49 -709 101 -235 46 -410 58 -513 35z m1992 -2496 c21 -41 19 -51 -5 -15
-11 17 -20 33 -20 38 0 15 10 6 25 -23z m-1720 -7257 c37 -164 99 -322 166
-420 25 -35 26 -40 10 -36 -17 4 -19 0 -14 -39 9 -84 34 -224 54 -308 23 -92
95 -286 110 -295 5 -4 9 -18 9 -32 0 -23 -7 -19 -77 49 -43 41 -122 116 -176
165 -142 130 -145 136 -161 282 -14 119 -34 179 -57 165 -5 -3 -3 11 7 33 53
123 86 265 100 436 4 42 8 77 9 77 2 0 11 -35 20 -77z"/>
<path d="M4432 7390 c0 -19 2 -27 5 -17 2 9 2 25 0 35 -3 9 -5 1 -5 -18z"/>
<path d="M4443 7290 c0 -25 2 -35 4 -22 2 12 2 32 0 45 -2 12 -4 2 -4 -23z"/>
<path d="M4453 7170 c0 -25 2 -35 4 -22 2 12 2 32 0 45 -2 12 -4 2 -4 -23z"/>
<path d="M4463 7065 c0 -27 2 -38 4 -22 2 15 2 37 0 50 -2 12 -4 0 -4 -28z"/>
<path d="M4473 6940 c0 -30 2 -43 4 -27 2 15 2 39 0 55 -2 15 -4 2 -4 -28z"/>
<path d="M4484 6775 c0 -49 1 -71 3 -48 2 23 2 64 0 90 -2 26 -3 8 -3 -42z"/>
</g>
</svg>
