<?xml version="1.0" encoding="iso-8859-1"?>
<!-- Uploaded to: SVG Repo, www.svgrepo.com, Generator: SVG Repo Mixer Tools -->
<!DOCTYPE svg PUBLIC "-//W3C//DTD SVG 1.1//EN" "http://www.w3.org/Graphics/SVG/1.1/DTD/svg11.dtd">
<svg fill="#000000" version="1.1" id="Capa_1" xmlns="http://www.w3.org/2000/svg" xmlns:xlink="http://www.w3.org/1999/xlink" 
	 width="800px" height="800px" viewBox="0 0 476.725 476.726"
	 xml:space="preserve">
<g>
	<g>
		<path d="M418.247,333.179c2.333,2.729,5.635,4.141,8.961,4.141c2.701,0,5.422-0.935,7.638-2.813
			c4.945-4.216,5.543-11.653,1.318-16.603l-58.271-68.379c0.721,12.066,0.749,24.181-0.032,36.279L418.247,333.179z"/>
		<path d="M463.05,421.771c3.065,0,6.123-1.187,8.439-3.57c4.532-4.661,4.432-12.115-0.229-16.644l-95.822-93.156
			c-1.326,9.277-3.138,18.494-5.361,27.647l84.753,82.396C457.123,420.669,460.081,421.771,463.05,421.771z"/>
		<path d="M371.143,388.133c2.333,2.729,5.635,4.14,8.965,4.14c2.697,0,5.418-0.934,7.634-2.812
			c4.945-4.217,5.543-11.654,1.319-16.607l-21.889-25.688c-1.362,4.805-2.737,9.614-4.353,14.367
			c-3.774,1.286-7.598,2.328-11.409,3.454L371.143,388.133z"/>
		<path d="M334.576,369.427c-9.397,2.176-18.843,4.023-28.356,5.273l101.508,98.699c2.292,2.216,5.246,3.326,8.203,3.326
			c3.074,0,6.136-1.194,8.448-3.571c4.532-4.664,4.432-12.114-0.229-16.654L334.576,369.427z"/>
		<path d="M260.643,353.985c7.786,0,15.568-0.437,23.335-1.134c9.75-0.874,19.428-2.408,29.046-4.384
			c6.757-1.383,13.44-3.038,20.089-4.953c3.186-0.922,6.4-1.703,9.55-2.745c1.827-5.498,3.442-11.049,4.885-16.627
			c0.714-2.722,1.234-5.466,1.848-8.211c2.084-9.31,3.779-18.699,4.829-28.152c1.034-9.277,1.479-18.606,1.519-27.937
			c0.061-13.216-0.806-26.437-2.753-39.547c-7.879-52.902-32.1-103.814-72.847-144.558C229.601,25.19,163.396,0,97.156,0
			C69.438,0,41.717,4.412,15.122,13.22c-29.857,90.121-9.191,193.316,62.52,265.021
			C128.205,328.812,194.408,353.985,260.643,353.985z M40.413,38.531c18.514-4.727,37.536-7.115,56.751-7.115
			c60.779,0,117.875,23.632,160.778,66.541c25.307,25.303,43.713,55.401,54.717,87.829c3.695,10.906,6.452,22.083,8.456,33.43
			c4.284,24.413,4.561,49.58,0.629,74.635c-1.142,7.221-2.509,14.442-4.348,21.636c-2.276,0.581-4.576,1.01-6.869,1.519
			c-16.346,3.647-33.029,5.595-49.876,5.595c-60.781,0-117.876-23.636-160.786-66.543C42.457,198.646,20.381,116.562,40.413,38.531z
			"/>
		<path d="M107.671,179.334c2.298,2.3,5.312,3.446,8.327,3.446c3.014,0,6.027-1.146,8.328-3.446l20.131-20.127l17.214,17.216
			l-23.96,23.96c-4.601,4.593-4.601,12.057,0,16.647c2.3,2.3,5.316,3.447,8.33,3.447c3.018,0,6.029-1.146,8.329-3.447l23.96-23.957
			l17.358,17.356l-20.135,20.135c-4.601,4.601-4.601,12.058,0,16.651c2.298,2.301,5.312,3.442,8.329,3.442
			c3.012,0,6.025-1.142,8.33-3.442l20.135-20.135l17.835,17.835c2.3,2.3,5.314,3.442,8.33,3.442c3.013,0,6.025-1.143,8.33-3.442
			c4.601-4.593,4.601-12.059,0-16.651l-17.835-17.835l20.127-20.135c4.601-4.601,4.601-12.058,0-16.651
			c-4.604-4.601-12.05-4.601-16.651,0l-20.127,20.135l-17.358-17.356l23.958-23.962c4.601-4.593,4.601-12.055,0-16.647
			c-4.601-4.604-12.053-4.604-16.651,0l-23.958,23.956l-17.218-17.214l20.131-20.129c4.601-4.591,4.601-12.059,0-16.651
			c-4.604-4.599-12.05-4.599-16.65,0l-20.129,20.129l-16.777-16.775c-4.6-4.603-12.052-4.603-16.651,0
			c-4.601,4.593-4.601,12.057,0,16.647l16.777,16.779l-20.127,20.127C103.067,167.276,103.067,174.744,107.671,179.334z"/>
	</g>
</g>
</svg>