<svg width="94" height="92" viewBox="0 0 94 92" fill="none" xmlns="http://www.w3.org/2000/svg">
<path d="M42.2192 24.9908L56.4884 30.6246C56.6355 30.6246 56.7826 30.7691 57.0768 30.7691C57.5181 30.7691 57.9594 30.6246 58.2536 30.3357L66.7857 20.6572C67.227 20.2238 67.227 19.5016 66.9328 18.9237L58.9891 5.77831C58.6949 5.20049 57.9594 4.91158 57.2239 5.05604L42.6605 9.38969C42.0721 9.53415 41.6308 10.112 41.6308 10.6898L41.1895 23.5463C41.1895 24.2686 41.6308 24.7019 42.2192 24.9908ZM44.5729 11.8454L57.0768 8.23405L63.6965 19.5016L56.6355 27.591L44.4258 22.6796L44.5729 11.8454Z" fill="#231F20"/>
<path d="M59.5776 51.1372L53.9876 65.0049C53.6934 65.5827 53.9876 66.3049 54.4289 66.5939L64.5791 74.8278C64.8733 75.1167 65.1675 75.1167 65.4617 75.1167C65.756 75.1167 65.9031 75.1167 66.1973 74.9723L79.4367 67.4606C80.0251 67.1717 80.3193 66.5939 80.1722 65.8716L77.6714 53.4484C77.5243 52.8706 77.083 52.4373 76.4946 52.2928L61.0486 50.126C60.4602 50.126 59.7247 50.4149 59.5776 51.1372ZM75.0236 55.0374L77.083 65.5827L65.6088 72.0832L57.0768 65.1493L61.7841 53.304L75.0236 55.0374Z" fill="#231F20"/>
<path d="M40.601 31.9246C40.1597 31.4912 39.277 31.4912 38.8357 31.7801L26.1847 40.4474C25.5963 40.7363 25.4492 41.4586 25.5963 42.0364L29.2739 54.3151C29.421 54.8929 30.0094 55.3263 30.5978 55.3263L46.0438 56.3375H46.191C46.7794 56.3375 47.3678 56.0486 47.5149 55.4708L52.5165 43.7699C52.8107 43.1921 52.6636 42.6142 52.0751 42.1809L40.601 31.9246ZM45.1612 53.4484L31.9218 52.5816L28.8326 42.1809L39.4241 34.8137L49.2802 43.481L45.1612 53.4484Z" fill="#231F20"/>
<path d="M93.4116 39.4363C93.1174 37.7028 92.8232 35.9693 92.3818 34.3803C91.3521 30.7689 90.0282 27.302 88.2629 24.124C86.939 21.8127 85.615 19.6459 83.9969 17.6235C75.3177 6.93385 61.9311 0 46.9264 0C33.9812 0 22.0657 5.20039 13.5336 13.7232C12.651 14.59 11.9155 15.4567 11.18 16.3234C7.79656 20.2237 5.00156 24.7018 3.0892 29.6133C2.64789 30.6245 2.35368 31.4912 2.05947 32.5024C0.735524 36.8361 0 41.3142 0 46.0812C0 51.8594 1.02973 57.3487 3.0892 62.4046C3.82473 64.427 4.85446 66.4494 5.88419 68.1828C6.91393 70.0607 8.09077 71.7942 9.26761 73.3832C10.5915 75.1167 11.9155 76.7057 13.3865 78.1502C18.9765 83.784 25.8905 87.9732 33.8341 90.14C34.8638 90.4289 35.8936 90.7178 36.9233 90.8623C40.1596 91.5846 43.543 91.8735 46.9264 91.8735C47.5149 91.8735 48.1033 91.8735 48.8388 91.8735C50.0156 91.8735 51.1925 91.729 52.3693 91.5846C75.759 88.9844 94 69.4829 94 45.7923C93.8529 43.7699 93.7058 41.6031 93.4116 39.4363ZM90.3224 39.1473L90.1753 39.5807L76.9358 38.714L73.8466 28.3132L83.2613 21.8127C86.7919 26.8687 89.2926 32.7913 90.3224 39.1473ZM14.7105 16.7568L18.241 17.1902L20.3005 27.7354L8.82629 34.2359L5.58998 31.4912C7.50235 26.0019 10.7387 20.946 14.7105 16.7568ZM15.1518 75.839C11.3271 71.7942 8.23787 67.1716 6.0313 61.9713V61.249L18.5352 57.6376L25.1549 68.9051L18.0939 76.9946L15.1518 75.839ZM50.457 89.1288C49.2801 89.2733 48.1033 89.2733 46.9264 89.2733C43.2488 89.2733 39.7183 88.8399 36.482 87.9732L35.011 79.1614L44.5728 73.6721L54.2817 82.0505L50.457 89.1288ZM53.9875 88.6955L57.3709 82.6283C57.6651 82.0505 57.518 81.3282 57.0767 80.8949L45.6025 71.0719C45.1612 70.6386 44.4257 70.6386 43.8372 70.9275L32.5102 77.428C31.9218 77.7169 31.6275 78.2947 31.7746 78.8725L33.2457 87.2509C28.097 85.6619 23.5368 83.0617 19.4178 79.8837C19.4178 79.8837 19.4178 79.8837 19.5649 79.8837L28.097 70.2052C28.5383 69.7718 28.5383 69.0496 28.2441 68.4717L20.4476 55.1819C20.1534 54.604 19.4178 54.3151 18.6823 54.4596L4.70736 58.6488C3.67762 54.604 2.9421 50.4148 2.9421 46.0812C2.9421 42.0364 3.53052 38.1362 4.56025 34.5248L7.64945 37.125C7.94366 37.4139 8.23787 37.4139 8.53208 37.4139C8.82629 37.4139 8.9734 37.4139 9.26761 37.2694L22.507 29.7578C23.0955 29.4689 23.3897 28.891 23.2426 28.1688L20.7418 15.6012C20.5947 15.0233 20.1534 14.59 19.5649 14.4455L17.2113 14.1566C25.1549 7.22276 35.4523 2.8891 46.9264 2.8891C60.9014 2.8891 73.4053 9.38958 81.4961 19.357L71.1987 26.4353C70.6103 26.7242 70.4632 27.4465 70.6103 28.0243L74.2879 40.303C74.4351 40.8808 75.0235 41.3142 75.6119 41.3142L90.6166 42.3254C90.7637 43.481 90.7637 44.7811 90.7637 46.0812C90.9108 67.605 74.8764 85.373 53.9875 88.6955Z" fill="#231F20"/>
</svg>
